<?xml version="1.0" encoding="utf-8"?>
<!-- Generator: Adobe Illustrator 26.0.1, SVG Export Plug-In . SVG Version: 6.00 Build 0)  -->
<svg version="1.1" id="Layer_5_copy" xmlns="http://www.w3.org/2000/svg" xmlns:xlink="http://www.w3.org/1999/xlink" x="0px"
	 y="0px" viewBox="0 0 164.9 57.9" style="enable-background:new 0 0 164.9 57.9;" xml:space="preserve">
<style type="text/css">
	.st0{fill:#FFFFFF;}
</style>
<polygon class="st0" points="51.3,0 51.3,25.2 51.3,25.2 51.3,57.9 61.3,57.9 61.3,25.2 61.3,25.2 61.3,0 "/>
<polygon class="st0" points="153,16.9 153,32.4 153,48.9 153,57.9 163,57.9 163,48.9 163,32.4 163,16.9 "/>
<circle class="st0" cx="158" cy="6.9" r="6.9"/>
<path class="st0" d="M41,37.4c0-0.1,0-0.1,0-0.2V16.9H31v2.9c-3.1-1.8-6.6-2.9-10.5-2.9C9.2,16.9,0,26.1,0,37.4
	c0,11.3,9.2,20.5,20.5,20.5c3.8,0,7.4-1.1,10.5-2.9v2.9h10V37.6C41,37.5,41,37.4,41,37.4z M20.5,47.9c-5.8,0-10.5-4.7-10.5-10.5
	c0-5.8,4.7-10.5,10.5-10.5c5.7,0,10.4,4.6,10.5,10.3v0.4C30.9,43.3,26.2,47.9,20.5,47.9z"/>
<path class="st0" d="M122.5,16.9c-6.2,0-11.7,2.8-15.5,7.1c-3.8-4.3-9.3-7.1-15.5-7.1c-3.9,0-7.4,1.1-10.5,2.9v-2.9H71v40.9h10V37.4
	h0c0-5.8,4.7-10.5,10.5-10.5S102,31.6,102,37.4h0v20.5h10V37.4h0c0-5.8,4.7-10.5,10.5-10.5S133,31.6,133,37.4h0v20.5h10V37.4h0
	C143,26,133.8,16.9,122.5,16.9z"/>
</svg>
