<?xml version="1.0" encoding="utf-8"?>
<!-- Generator: Adobe Illustrator 26.0.1, SVG Export Plug-In . SVG Version: 6.00 Build 0)  -->
<svg version="1.1" id="Facebook" xmlns="http://www.w3.org/2000/svg" xmlns:xlink="http://www.w3.org/1999/xlink" x="0px" y="0px"
	 viewBox="0 0 115.7 115.7" style="enable-background:new 0 0 115.7 115.7;" xml:space="preserve">
<path d="M57.8,0C25.9,0,0,25.9,0,57.8c0,31.9,25.9,57.8,57.8,57.8s57.8-25.9,57.8-57.8C115.7,25.9,89.8,0,57.8,0z M77.6,37
	c0,0.6-0.4,1-1,1H62.5v7.6h14.1c0.6,0,1,0.4,1,1v14.1c0,0.6-0.4,1-1,1H63.5v30.9c0,0.6-0.4,1-1,1H49.2c-0.6,0-1-0.4-1-1V61.6h-9.1
	c-0.6,0-1-0.4-1-1V46.6c0-0.6,0.4-1,1-1h9.1v-5.7c0-0.1,0-0.2,0-0.2c0-8.1,1.7-17.4,15.1-17.5c0,0,0.1,0,0.1,0h13.2c0.6,0,1,0.4,1,1
	L77.6,37L77.6,37z"/>
</svg>
