<svg id="Слой_1" data-name="Слой 1" xmlns="http://www.w3.org/2000/svg" viewBox="0 0 3200 2000"><defs><style>.cls-1{fill:#fff;}.cls-2{fill:#ebf3fa;}.cls-3{fill:#b0d4ff;}.cls-4{fill:#95c0f4;}.cls-5{fill:#cae5ff;}.cls-6{fill:#dfedfb;}.cls-7{fill:#ffa412;}.cls-8{fill:#eef6ff;}.cls-9{fill:#78acea;}.cls-10{fill:#bae8e3;}.cls-11{fill:#a1d6ce;}.cls-12{fill:#f99746;}.cls-13{fill:#c0d8fb;}.cls-14{fill:#dfebfd;}.cls-15{fill:#b7d3f3;}.cls-16{fill:#ffb27d;}.cls-17{fill:#233862;}.cls-18{fill:#a9453d;}.cls-19{fill:#ed975d;}.cls-20{fill:#2a4e96;}.cls-21{fill:#5f9aa8;}.cls-22{fill:#1e3d70;}.cls-23{fill:#ed7d2b;}.cls-24{fill:#163560;}.cls-25{fill:#b0d0ff;}.cls-26{fill:#98baf4;}.cls-27{fill:#e8945b;}.cls-28{fill:#f2ccaa;}.cls-29{fill:#b5453c;}.cls-30{fill:#2b478b;}.cls-31{fill:#ebf3ff;}.cls-32{fill:#213f7a;}.cls-33{fill:#e2915a;}.cls-34{fill:#2e3552;}</style></defs><rect class="cls-1" x="0.01" y="0.01" width="3200" height="2000"/><path class="cls-2" d="M345.29,1707.36c.13.1,2521.51-.31,2521.51-.31,83-177.06,82.86-263.57,92.31-365.06C3011.27,781,2588.77,694.8,2465,671.41c-379-71.62-206.5-426-1194.08-359.5C1180.4,318,967,367.2,893.43,399.07c-51.58,22.34-245.94,122.29-303,291.36-18,53.36-22.33,113.61-4.17,180.47,64.27,236.61-103.29,223-225.73,335.78C197.14,1357.16,214.22,1603.27,345.29,1707.36Z"/><path class="cls-3" d="M1847.22,1707.21h.34a3.63,3.63,0,0,0,3.63-3.72l-5.5-238.4-16.2-1.89,13.81,240.31A3.93,3.93,0,0,0,1847.22,1707.21Z"/><path class="cls-4" d="M1941.63,1707.21h.35a3.64,3.64,0,0,0,3.63-3.72l-5.5-238.4-16.21-1.89,13.82,240.31A3.93,3.93,0,0,0,1941.63,1707.21Z"/><path class="cls-3" d="M1681.09,1707.21h-.34a3.63,3.63,0,0,1-3.63-3.72l5.5-238.4,16.2-1.89L1685,1703.51A3.93,3.93,0,0,1,1681.09,1707.21Z"/><path class="cls-3" d="M1952.37,1450.3V1286.94a52,52,0,0,0-52-52h-117.7a52.05,52.05,0,0,0-52,52v169.61Z"/><path class="cls-4" d="M1725.11,1450.3h227.26a0,0,0,0,1,0,0v25.79a0,0,0,0,1,0,0H1709.48a0,0,0,0,1,0,0v-10.16A15.63,15.63,0,0,1,1725.11,1450.3Z" transform="translate(3661.85 2926.4) rotate(180)"/><rect class="cls-5" x="1670.69" y="1450.3" width="195.04" height="25.79" rx="11.56" transform="translate(3536.43 2926.4) rotate(180)"/><rect class="cls-4" x="1399.89" y="590.47" width="678.53" height="585.74"/><rect class="cls-6" x="1412.81" y="600.23" width="652.42" height="564.3"/><polygon class="cls-1" points="1640.84 845.75 1497.87 845.75 1497.87 667.23 1522.12 645.38 1640.84 645.38 1640.84 845.75"/><polygon class="cls-3" points="1497.87 667.23 1521.34 667.23 1522.12 645.38 1497.87 667.23"/><rect class="cls-3" x="1546.47" y="662.75" width="45.77" height="2.18"/><rect class="cls-3" x="1535.69" y="669.29" width="67.33" height="2.18"/><rect class="cls-3" x="1514.8" y="711.29" width="111.79" height="2.8"/><rect class="cls-3" x="1514.8" y="719.8" width="111.79" height="2.8"/><rect class="cls-3" x="1514.8" y="728.32" width="111.79" height="2.8"/><rect class="cls-3" x="1514.8" y="736.83" width="111.79" height="2.8"/><rect class="cls-3" x="1514.8" y="827.91" width="111.79" height="2.8"/><polygon class="cls-1" points="1805.91 1093.43 1662.95 1093.43 1662.95 914.91 1687.19 893.06 1805.91 893.06 1805.91 1093.43"/><polygon class="cls-3" points="1662.95 914.91 1686.41 914.91 1687.19 893.06 1662.95 914.91"/><rect class="cls-3" x="1711.54" y="910.43" width="45.78" height="2.18"/><rect class="cls-3" x="1700.77" y="916.97" width="67.33" height="2.18"/><rect class="cls-3" x="1679.88" y="958.97" width="111.79" height="2.8"/><rect class="cls-3" x="1679.88" y="967.48" width="111.79" height="2.8"/><rect class="cls-3" x="1679.88" y="975.99" width="111.79" height="2.8"/><rect class="cls-3" x="1679.88" y="984.51" width="111.79" height="2.8"/><rect class="cls-3" x="1679.88" y="1010.7" width="111.79" height="2.8"/><rect class="cls-3" x="1679.88" y="1019.21" width="111.79" height="2.8"/><rect class="cls-3" x="1679.88" y="1029.08" width="111.79" height="2.8"/><rect class="cls-3" x="1807.65" y="645.38" width="78.94" height="69.6"/><path class="cls-7" d="M1843.66,653.66a3.46,3.46,0,1,1,3.46,3.46A3.45,3.45,0,0,1,1843.66,653.66Z"/><rect class="cls-1" x="1807.65" y="739.51" width="78.94" height="69.6" transform="translate(-49.44 130.51) rotate(-3.99)"/><path class="cls-3" d="M1842.13,752.4a3.45,3.45,0,1,1,3.68,3.21A3.46,3.46,0,0,1,1842.13,752.4Z"/><rect class="cls-1" x="1545.32" y="995.91" width="78.94" height="69.6" transform="translate(-67.93 112.87) rotate(-3.99)"/><path class="cls-3" d="M1579.8,1008.8a3.45,3.45,0,1,1,3.68,3.21A3.46,3.46,0,0,1,1579.8,1008.8Z"/><rect class="cls-1" x="1444.07" y="1043.59" width="78.94" height="69.6" transform="translate(-10.98 15.27) rotate(-0.59)"/><path class="cls-3" d="M1479.86,1056.23a3.46,3.46,0,1,1,3.49,3.42A3.45,3.45,0,0,1,1479.86,1056.23Z"/><rect class="cls-8" x="1919.14" y="785.28" width="78.94" height="69.6" transform="translate(174.82 -331.79) rotate(10.13)"/><path class="cls-9" d="M1960.12,794.58a3,3,0,1,1,2.43,3.48A3,3,0,0,1,1960.12,794.58Z"/><rect class="cls-8" x="1686.12" y="739.51" width="78.94" height="69.6" transform="translate(-73.3 190.17) rotate(-6.18)"/><path class="cls-9" d="M1719.87,749.41a3,3,0,1,1,3.32,2.66A3,3,0,0,1,1719.87,749.41Z"/><rect class="cls-10" x="1485.36" y="907.44" width="78.94" height="69.6" transform="translate(-162.97 338.71) rotate(-12.04)"/><path class="cls-7" d="M1517.9,919.92a3,3,0,1,1,4.16-.88A3,3,0,0,1,1517.9,919.92Z"/><polygon class="cls-1" points="1763.16 714.97 1688.02 714.97 1688.02 664.49 1708.83 645.38 1763.16 645.38 1763.16 714.97"/><polygon class="cls-3" points="1687.62 664.49 1708.14 664.49 1708.83 645.38 1687.62 664.49"/><path class="cls-3" d="M1725.87,651.82a2.47,2.47,0,1,1,2.47,2.47A2.46,2.46,0,0,1,1725.87,651.82Z"/><polygon class="cls-1" points="1982.69 1128.23 1907.56 1128.23 1907.56 1077.74 1928.36 1058.63 1982.69 1058.63 1982.69 1128.23"/><polygon class="cls-3" points="1907.16 1077.74 1927.68 1077.74 1928.36 1058.63 1907.16 1077.74"/><path class="cls-3" d="M1945.4,1065.07a2.47,2.47,0,1,1,2.47,2.47A2.48,2.48,0,0,1,1945.4,1065.07Z"/><polygon class="cls-1" points="2016.97 1028.04 1941.83 1028.04 1941.83 977.56 1962.63 958.44 2016.97 958.44 2016.97 1028.04"/><polygon class="cls-3" points="1941.43 977.56 1961.95 977.56 1962.63 958.44 1941.43 977.56"/><path class="cls-3" d="M1979.68,964.88a2.47,2.47,0,1,1,2.47,2.47A2.47,2.47,0,0,1,1979.68,964.88Z"/><polygon class="cls-10" points="1917.81 1028.04 1842.68 1028.04 1842.68 977.56 1863.48 958.44 1917.81 958.44 1917.81 1028.04"/><polygon class="cls-11" points="1842.28 977.56 1862.8 977.56 1863.48 958.44 1842.28 977.56"/><path class="cls-12" d="M1880.52,964.88a2.47,2.47,0,1,1,2.47,2.47A2.48,2.48,0,0,1,1880.52,964.88Z"/><polygon class="cls-10" points="2038.17 697.55 1963.04 697.55 1963.04 647.07 1983.84 627.96 2038.17 627.96 2038.17 697.55"/><polygon class="cls-11" points="1962.63 647.07 1983.16 647.07 1983.84 627.96 1962.63 647.07"/><path class="cls-12" d="M2000.88,634.39a2.47,2.47,0,1,1,2.47,2.47A2.48,2.48,0,0,1,2000.88,634.39Z"/><rect class="cls-13" x="1140.31" y="414.5" width="166.78" height="161.8" rx="11.93"/><rect class="cls-14" x="1147.53" y="421.51" width="152.33" height="147.78" rx="10.9"/><path class="cls-15" d="M1220.24,436.28a3.46,3.46,0,1,1,3.46,3.45A3.46,3.46,0,0,1,1220.24,436.28Z"/><path class="cls-15" d="M1248.12,441.16a3.46,3.46,0,1,1,1.34,4.7A3.45,3.45,0,0,1,1248.12,441.16Z"/><path class="cls-15" d="M1272,460.13a3.46,3.46,0,1,1-1,4.78A3.47,3.47,0,0,1,1272,460.13Z"/><path class="cls-15" d="M1283.83,489.5a3.46,3.46,0,1,1-3.45,3.46A3.46,3.46,0,0,1,1283.83,489.5Z"/><path class="cls-15" d="M1277.79,523.58a3.45,3.45,0,1,1-4.88,0A3.46,3.46,0,0,1,1277.79,523.58Z"/><path class="cls-15" d="M1256.1,545.34a3.45,3.45,0,1,1-4.89,0A3.45,3.45,0,0,1,1256.1,545.34Z"/><path class="cls-15" d="M1220.24,556.55a3.46,3.46,0,1,1,3.46,3.45A3.46,3.46,0,0,1,1220.24,556.55Z"/><path class="cls-15" d="M1199.17,441.16a3.46,3.46,0,1,0-1.35,4.7A3.45,3.45,0,0,0,1199.17,441.16Z"/><path class="cls-15" d="M1175.28,460.13a3.45,3.45,0,1,0,1,4.78A3.45,3.45,0,0,0,1175.28,460.13Z"/><path class="cls-15" d="M1163.45,489.5a3.46,3.46,0,1,0,3.46,3.46A3.45,3.45,0,0,0,1163.45,489.5Z"/><path class="cls-15" d="M1169.49,523.58a3.46,3.46,0,1,0,4.89,0A3.46,3.46,0,0,0,1169.49,523.58Z"/><path class="cls-15" d="M1191.19,545.34a3.45,3.45,0,1,0,4.88,0A3.45,3.45,0,0,0,1191.19,545.34Z"/><path class="cls-15" d="M1222.77,493a3.46,3.46,0,1,1,3.45,3.45A3.45,3.45,0,0,1,1222.77,493Z"/><rect class="cls-15" x="1225.75" y="449.8" width="0.94" height="43.16"/><rect class="cls-15" x="1222.68" y="482.5" width="29.09" height="2.83" transform="translate(-34.72 867.4) rotate(-38.14)"/><path class="cls-16" d="M2175,1698.68c-.68,9.28-13.78,9.38-28.64,7.65s-10.91,2-31.72,2.33-28-6.59-29-9.56c-.9-2.64,9.12-4.86,19.84-7.47,1.35-.32,2.7-.66,4.05-1,12.09-3.07,20.1-12.12,30.44-20,9.8-7.48,22.43-34.56,22.43-34.56l28.43-1.29s-12,24.28-16.47,34.75c-2.64,6.15-1.52,13.72-.37,19.52A36.43,36.43,0,0,1,2175,1698.68Z"/><path class="cls-17" d="M2146.36,1706.33c-14.86-1.72-10.91,2-31.72,2.33s-28-6.59-29-9.56c-.9-2.64,9.12-4.86,19.84-7.47l.13.2a58.33,58.33,0,0,0,30.53,5.47c14-1.4,28.22-7.23,37.85-8.28a36.43,36.43,0,0,1,1,9.66C2174.32,1708,2161.22,1708.06,2146.36,1706.33Z"/><path class="cls-16" d="M2371.31,1700.6c-.68,9.28-13.77,9.4-28.63,7.69s-10.91,2-31.72,2.36-28-6.56-29-9.53c-.9-2.64,9.11-4.87,19.83-7.49l4.06-1c12.08-3.09,20.08-12.14,30.41-20.06,9.79-7.49,0-51.85,0-51.85l31.27-3s-1.5,37.35-1.48,54.33c0,6.7,3.09,13.14,4.24,19A36.32,36.32,0,0,1,2371.31,1700.6Z"/><path class="cls-17" d="M2342.68,1708.29c-14.87-1.71-10.91,2-31.72,2.36s-28-6.56-29-9.53c-.9-2.64,9.11-4.87,19.83-7.49l.13.19a58.32,58.32,0,0,0,30.54,5.44c14-1.41,28.21-7.26,37.84-8.31a36.32,36.32,0,0,1,1,9.65C2370.63,1709.88,2357.54,1710,2342.68,1708.29Z"/><path class="cls-18" d="M2280.07,933.87c-5.38-22.13,2.42-32.44,9.46-37.93,3.33-8.15,7.14-14,11-16.24,7.11-4,15.62-4.48,21.58-4.12a10,10,0,0,0-4.55-2.16c3.69-.55,11.93,3.11,11.93,3.11,51.37-19.79,59.45,55.85,58.37,73.42s-.93,38.27,25.8,52.11c51,26.42-16.95,126-16.95,126,1.3-14.2-64.23-89.15-98.41-111.59-8.32-12.25-11.28-33.89-11.5-35.6,1.43,17.16,4.37,26.79,7,32.21C2278.25,998.72,2275.94,964.29,2280.07,933.87Z"/><path class="cls-16" d="M2300.36,1017.57c-.17.07,16.51,8.73,29,5.3,11.8-3.21,19.51-18.51,19.35-18.55-5-1-6.44-7.86-6.34-37.36l-2.25.44-38,7.52s.87,12,.89,23.22C2303.1,1007.59,2302.53,1016.56,2300.36,1017.57Z"/><path class="cls-19" d="M2302.18,974.92s.87,12,.89,23.22c21.26-.6,32.49-20,37.1-30.74Z"/><path class="cls-20" d="M2147.65,1651.09a9.32,9.32,0,0,0,8.44,12.14l14.84.69,15.7.48a12.58,12.58,0,0,0,10.16-4.64c12.53-15.37,51.11-66.61,74.51-141.06q1-3.14,2.08-6.34c15.46-45.06,47.49-101.62,64.38-152.81,2.68-8.16,5.1-15.83,7.26-23.1.69-2.33,1.37-4.61,2-6.86,12.44-43.23,16-71.61,19.36-101.93l-121.9,1S2218.83,1428.11,2147.65,1651.09Z"/><path class="cls-1" d="M2261.56,1158.58c.3,58-8.51,82.9-8.51,82.9s52.19,26.52,114.23,7c.73-.23,51.36-11.79,51.36-11.79-1-2.35-10.27-41.44-11.28-43.59-13.1-28.13-23-40.46-24.6-49.11-2.88-16.14-2.94-32.85-1.51-48.6a390.13,390.13,0,0,1,15.05-76.32c-16.91-3.85-32.73-10.61-50.33-17.2-4,5-16.41,10.31-27.15,10.07-12.35-.28-16.36-5.57-15.72-11.34-13.17,7.33-23.67,14.25-23.67,14.25-11.2,19.44-33.89,38.32-35.54,68.14C2243.49,1090.32,2261.55,1157,2261.56,1158.58Z"/><path class="cls-21" d="M2366.4,1165.05c5.32,7.54,15.54,53.38,41,59.15-13.1-32.68-23-47-24.6-57-2.88-18.75-2.94-38.15-1.51-56.45-8.5-14.91-14.85-25.14-14.85-25.14-.67-2.41-13.53-42.15-17.65-6.63S2360.44,1156.61,2366.4,1165.05Z"/><path class="cls-16" d="M2295.09,985.58s50.28.83,50.32-30.49,6.55-52.31-25.56-54.17-38.36,10.09-40.91,20.55S2282,984.56,2295.09,985.58Z"/><path class="cls-18" d="M2297,900.15s13.77,36.75,34.9,42.19,30.29-.23,30.29-.23-16.21-12.88-19.57-35.35C2342.57,906.76,2307.33,882.66,2297,900.15Z"/><path class="cls-18" d="M2300.36,903.14s-10.28,8.2-12.79,16.18-3.63,24.4-8.42,23.84c0,0-10.37-25,1.28-39.11C2292.79,889.07,2300.36,903.14,2300.36,903.14Z"/><polygon class="cls-16" points="2215.96 1198.85 2192.21 1271.26 2205.76 1276.69 2245.03 1212.71 2215.96 1198.85"/><path class="cls-12" d="M2280,1010.58s-28,11.12-36.11,28.44-20.38,133.55-25.27,145.49-8.56,21.38-8.56,21.38,14.12,11.9,28.32,12.77S2280,1010.58,2280,1010.58Z"/><path class="cls-12" d="M2303.1,1000.6s-29.09,71.87-29.95,86.42-3.42,237.87-3.42,237.87,1.71,10.27-18,6-24.81-8.55-24.81-8.55,18.82-137.76,13.69-185.68S2280,1010.58,2280,1010.58Z"/><path class="cls-22" d="M2170.93,1663.92l17,.52a9.84,9.84,0,0,0,7.91-3.57c11.46-13.87,51.42-65.82,75.42-142.17q1-3.14,2.08-6.34c15.46-45.06,47.49-101.62,64.38-152.81,2.68-8.16,5.1-15.83,7.26-23.1.69-2.33,1.37-4.61,2-6.86l-18-13.62s-53.9,87.27-70.58,169.41C2244,1556.72,2186,1642.57,2170.93,1663.92Z"/><path class="cls-20" d="M2327.21,1493c-.3,37.78,1.5,122,6.09,163.18a7.45,7.45,0,0,0,7.4,6.61h12.72c5.36,0,9.37,0,12-.08a4.89,4.89,0,0,0,4.72-4c12.65-64.37,21.7-117.84,28.33-164,5.54-38.68,10.47-71.83,14.26-100.38,3.82-28.72,6.47-52.77,7.42-73.1q.22-4.8.32-9.33c.06-3,.07-6,0-8.86l-105.33-10.27C2316.55,1362.79,2327.38,1469.81,2327.21,1493Z"/><path class="cls-22" d="M2353.42,1662.82c4.82,0,8.55,0,11.19-.07a5.93,5.93,0,0,0,5.73-4.79c12.56-64,21.57-117.21,28.17-163.22,5.54-38.68,10.47-71.83,14.26-100.38,3.82-28.72,6.47-52.77,7.42-73.1L2381.54,1344s24.67,8.7,15.26,74.59S2366.52,1653.49,2353.42,1662.82Z"/><path class="cls-12" d="M2348.45,1320.62s7.42,26.8,33.09,23.38,62.17-18.82,62.17-18.82-11-34.67-24.61-80.2c-16.51-55.13-37-126.21-46.59-171-2.7-12.56-4.55-23-5.24-30.57L2346,1002.06s-31.76,71.27-33.47,89.24S2348.45,1320.62,2348.45,1320.62Z"/><path class="cls-16" d="M2374.08,1088.62,2346,1002.06c.08,0,35.5,10.54,53.32,19.55,0,0,11.14,14.36,18,47.48,0,0,7.28,79.54-9,108.63,0,0-51.34,10.27-133.49-18v-18.82s89.85,4.7,108.24,6.84Z"/><path class="cls-23" d="M2349.59,1129c1.14,29.09,8,85.56,69,115.79l.49.24c-16.51-55.13-37-126.21-46.59-171C2361.3,1090.7,2349,1112.93,2349.59,1129Z"/><path class="cls-12" d="M2346,1002.06s52.11,3.67,64.66,31.63,16.54,120.93.57,148.31c0,0-22,6.26-60.89-1l-1.43-.27s-12.41-30.38-1.29-36.37c0,0,32.8,1.71,29.38-9.13S2346,1002.06,2346,1002.06Z"/><path class="cls-18" d="M2215.34,1152.56l1.53,4.93,85.5-26.6a3.27,3.27,0,0,0,.58-3,2.44,2.44,0,0,0-2.12-1.91Z"/><polygon class="cls-18" points="2209.15 1157.22 2215.34 1152.56 2216.87 1157.49 2209.15 1157.22"/><path class="cls-16" d="M2195.58,1269.28s-21.69,12-24.54,21.12-.89,28.25,2.55,28,8.58-20.55,11.43-22,6.85-5.7,6.85-2.56-2.85,8.84-1.42,9.7,6-8,9.13-9.7,4.46-15.83,7.51-19.62S2195.58,1269.28,2195.58,1269.28Z"/><path class="cls-16" d="M2274.86,1140.93s-19.39-12-27.53-10.11-28.87,16.86-18.9,20.11,18.05-.16,21.89,2.2,6.67,6.68,24.54,6.62S2274.86,1140.93,2274.86,1140.93Z"/><path class="cls-24" d="M749.47,1012.59c-3.25-6.27,70.94-28.85,72.11,33,0,0,139-3.41,72.62-80.87-23-26.82-20.61-49-19.92-69.63s-14.31-80.64-65.75-74.6c0,0-13.47-5.48-30.29,3.24C740,843.6,654.36,1035.41,749.47,1012.59Z"/><path class="cls-16" d="M976.68,1081.78s9-13.77,16.33-14,20.8-4,19.72-1.35-9.45,3-10.26,4.59,12.42,4,16.2,4.32,12.69,0,12.42,1.89-16.06,9.72-27.2,8.64-24.92,3.24-24.92,3.24Z"/><path class="cls-25" d="M845.85,1086.24a135.42,135.42,0,0,0,13.83,20.92c10.75,13.46,27.33,29,48.14,32.09,9.94,1.46,19.66-.67,28.6-4.64h0c25.27-11.22,44.28-37,44.28-37,4.45-12.16-2.84-20.39-2.84-20.39s-51,11.48-55.89,9-33.22-84.12-40-94.38-29.76-15.6-29.76-15.6Z"/><path class="cls-26" d="M859.68,1107.16c10.75,13.46,27.33,29,48.14,32.09,9.94,1.46,19.66-.67,28.6-4.64-1,.13-26.24,3.24-36.3-14.76-10.26-18.36-21.36-47.52-36.6-37.8C856.94,1086.24,857.23,1096.67,859.68,1107.16Z"/><path class="cls-17" d="M655.44,1637.14s-15.57,14.21-12.53,24.31,17.09,16.83,19,29.17,9.49,19.08,16.33,19.08h32.6s5-8.69-7.13-11.3-16.73-17.12-16-30.59-1.14-31.42-1.14-31.42l-25.83-6Z"/><path class="cls-17" d="M787.25,1643.18s-5.6,60.2,1.23,63.57l87.5-.18s0-10.1-14.05-12.34-38.74-10.47-42.92-28.8S787.25,1643.18,787.25,1643.18Z"/><path class="cls-16" d="M724.9,1211.24c18-40.38,29-52,26.92-64.5-1.57-9.33,4.76-173.92,4.76-173.92,2.14-.66,6.42-1.26,8.76-1.78a22,22,0,0,0,16-13.95c3.06-8.58,5.5-21.25,5.44-37.14l2.31.46,38.78,7.68s-.88,12.2-.91,23.7v.29a22.29,22.29,0,0,0,16.1,21.56c4.89,1.42,9.16,2.63,9.16,2.63s14.24,40.65,17,82.42-25.9,59.91.21,143.37C896.1,1287.31,715,1233.55,724.9,1211.24Z"/><path class="cls-27" d="M827.92,928.09s-.88,12.2-.91,23.7c-21.7-.61-33.17-20.41-37.87-31.38Z"/><path class="cls-16" d="M835.17,939s-51.35.85-51.38-31.13-6.69-53.42,26.09-55.31,39.16,10.31,41.77,21S848.52,937.93,835.17,939Z"/><path class="cls-24" d="M833.27,851.75s-14.06,37.52-35.64,43.07-30.93-.23-30.93-.23,16.55-13.15,20-36.1C786.68,858.49,822.66,833.89,833.27,851.75Z"/><path class="cls-24" d="M829.78,854.79s10.43,3.9,14.72,11.5a51.78,51.78,0,0,1,6.94,29.37s10.59-25.51-1.31-39.93C837.5,840.43,829.78,854.79,829.78,854.79Z"/><path class="cls-2" d="M824,919.13a12.94,12.94,0,0,0,10.64,4.33,9.43,9.43,0,0,0,7.91-5.22S832.05,915.71,824,919.13Z"/><path class="cls-25" d="M719.94,1045.62a349.69,349.69,0,0,0,0,40.45c.87,14.62,15.66,34.21,17.76,39,5.26,12.15,11.2,14.13,11.2,14.13l45.94,11.26,16.16,4,50.94-15.21s23.2-64.76,13.88-101.22-23.55-61.77-23.55-61.77-41.57,40.7-95.69-3.45Z"/><path class="cls-28" d="M733.39,1092c.87,14.62,2.21,28.24,4.31,33.08,5.26,12.15,11.2,14.13,11.2,14.13l45.94,11.26,20-5.87s-66.61-10.09-59.23-67.4Z"/><path class="cls-23" d="M858.7,1149.08s25.22,78.52,26.84,105.25-48.22,379.77-50.22,392.09c-1.89,11.61-16.31,19-16.31,19s-6.63,3.91-16.1,1.24c-13.13-3.71-17.28-8.15-17.28-8.15S766,1406.74,778.15,1316.8a1424.15,1424.15,0,0,0,12.29-167.72Z"/><path class="cls-12" d="M751.82,1146.74s-38.48,51.63-42.07,86.53-5.63,157.49-13.27,191.52-35.72,99.5-35.72,205.62c0,0,2.92,6.08,11.93,9.32a97.2,97.2,0,0,0,10.49,2.9,16.48,16.48,0,0,0,18.45-8.75c19-38.23,79.46-161.5,82.56-187.09,2.19-18.11,21.28-138,62.93-208.3,10-16.88-6.13-84-6.13-84Z"/><path class="cls-1" d="M825.14,920s.88,3.77,10.26,3.19c0,0,7.87-.49,7.63-4.63C843,918.55,835.4,915.6,825.14,920Z"/><path class="cls-17" d="M862.73,1137s-10.13,8-30.25,8.41c-24,.49-83.57-6.12-83.57-6.12a49.11,49.11,0,0,0-2.54,15.19s72.72,18.35,114.86,2.68C861.23,1157.12,866.66,1146.9,862.73,1137Z"/><path class="cls-1" d="M827.28,1153.67c0-6.84,4.92-12.41,11-12.41s11,5.57,11,12.41-4.92,12.41-11,12.41S827.28,1160.51,827.28,1153.67Zm3.63,0c0,4.84,3.29,8.78,7.34,8.78s7.33-3.94,7.33-8.78-3.29-8.78-7.33-8.78S830.91,1148.83,830.91,1153.67Z"/><rect class="cls-29" x="702.88" y="1064.99" width="98.8" height="135.24" transform="matrix(-0.75, -0.66, 0.66, -0.75, 575.84, 2480.78)"/><path class="cls-16" d="M765.71,1151.4s27.3,3.19,27.21,9.67-6.8,19.79-10.17,20.39-22.22-18-22.22-18Z"/><path class="cls-25" d="M756.58,972.81s-36.45,2.56-50.42,36.52-40.48,91-40.48,100.58,14.81,39.17,94.33,56.17c0,0,8.23-8.65,7.73-15.49,0,0-49.64-42.64-49.51-47.63.26-9.42,8.14-21.87,51.73-65.46C781.8,1025.64,756.58,972.81,756.58,972.81Z"/><path class="cls-3" d="M1159.27,1707.84h-.35a3.63,3.63,0,0,1-3.63-3.71l5.5-238.41,16.21-1.89-13.82,240.32A3.92,3.92,0,0,1,1159.27,1707.84Z"/><path class="cls-4" d="M1064.85,1707.84h-.35a3.63,3.63,0,0,1-3.63-3.71l5.51-238.41,16.2-1.89-13.82,240.32A3.92,3.92,0,0,1,1064.85,1707.84Z"/><path class="cls-3" d="M1325.39,1707.84h.35a3.62,3.62,0,0,0,3.62-3.71l-5.5-238.41-16.2-1.89,13.82,240.32A3.91,3.91,0,0,0,1325.39,1707.84Z"/><path class="cls-3" d="M1054.11,1450.94V1287.57a52.05,52.05,0,0,1,52.05-52h117.7a52.05,52.05,0,0,1,52.05,52v169.61Z"/><path class="cls-4" d="M1054.11,1450.94H1297a0,0,0,0,1,0,0v25.79a0,0,0,0,1,0,0H1069.74a15.63,15.63,0,0,1-15.63-15.63v-10.16A0,0,0,0,1,1054.11,1450.94Z"/><rect class="cls-3" x="1140.75" y="1450.94" width="195.04" height="25.79" rx="11.56"/><path class="cls-17" d="M1317.56,1410.23c-16.86,29.35-38.07,40.68-38.07,40.68h-88.23S1330.42,1387.84,1317.56,1410.23Z"/><path class="cls-16" d="M1249.79,1637.3a8.14,8.14,0,0,0-1.45,8.72l0,0c2.11,5.82,9.06,12.31,17.13,18.8,1,.83,2,1.59,2.75,2.29l.62.55c.16.15.32.3.48.43,7.53,6.94,4.69,8.53,18.22,22.62,15.43,16,26,16.34,29.07,14.88,2.56-1.25-2.64-9.76-8.39-19.33-.28-.46-.55-.93-.84-1.39-.77-1.28-1.53-2.57-2.29-3.85-6.74-11.51-5-16.92-3.41-34,1.3-13.93,21.66-77.8,21.66-77.8l-29.56-5.1s-8.9,50.87-18.71,58.7c-5.25,4.18-11.12,4.23-16.16,7.32-.36.22-.71.44-1,.67A38.49,38.49,0,0,0,1249.79,1637.3Z"/><path class="cls-17" d="M1249.79,1637.3a8.14,8.14,0,0,0-1.45,8.72l0,0c2.58,5.81,9.36,12.27,17.16,18.74,1,.84,1.92,1.62,2.72,2.35l.62.55c.16.15.32.3.48.43,7.53,6.94,4.69,8.53,18.22,22.62,15.43,16,26,16.34,29.07,14.88,2.56-1.25-2.64-9.76-8.39-19.33a65.76,65.76,0,0,1-27.5-20.26c-9.29-11.86-15.48-27.08-21.81-35.91-.36.22-.71.44-1,.67A38.49,38.49,0,0,0,1249.79,1637.3Z"/><path class="cls-16" d="M1488.17,1618.83c1.83,9.13,14.83,7.61,29.37,4.05s11.07.67,31.76-1.61,27-10,27.58-13.08c.56-2.73-9.66-3.69-20.62-5-1.38-.15-2.76-.32-4.15-.49-12.37-1.55-21.44-9.54-32.68-16.1-10.65-6.21-26.54-31.52-26.54-31.52l-28.36,2.24s14.88,22.61,20.64,32.44c3.38,5.78,3.2,13.43,2.78,19.33A36.24,36.24,0,0,0,1488.17,1618.83Z"/><path class="cls-17" d="M1517.54,1622.88c14.53-3.55,11.07.67,31.76-1.61s27-10,27.58-13.08c.56-2.73-9.66-3.69-20.62-5l-.1.22a58.34,58.34,0,0,1-29.62,9.2c-14,.34-28.9-3.68-38.59-3.52a36.24,36.24,0,0,0,.22,9.7C1490,1628,1503,1626.44,1517.54,1622.88Z"/><path class="cls-17" d="M1379.47,1437.46,1353,1508.81,1318.34,1602a56.3,56.3,0,0,1-18.39-1.68c-8.29-2.4-17.79-8.66-17.79-8.66s9.61-100,27.54-157.45c4.6-14.74,9.75-26.67,15.43-33.38C1352.93,1368,1379.47,1437.46,1379.47,1437.46Z"/><path class="cls-30" d="M1352.51,1324.15c-17.37-5.61-66.92,1.59-116.69,11.33l-10.42-17.19-107.5-8.39s-35.47,78.67-16.05,128.79c2.85,7.37,8.52,12.09,18.19,12.25h1.57l84.76,0c53.46,0,113.15-36.75,120.87-38.29,12.63-2.53,17.69,22.74,30.33,49.28s118.78,117.53,118.78,117.53,16.32.16,23.06-2.37c7.25-2.72,9.9-6.25,9.9-6.25S1391.69,1336.79,1352.51,1324.15Z"/><path class="cls-17" d="M1221.17,1005.27c-13.77-7.23-34.72-8.21-38.13-8.67-40.73-5.47-65.25,53.72-66.69,71.66-2.66,33.06-20.15,38.1-44.77,58.8-49.36,41.52-34.88,89.76-7.89,107.68,16.19,10.76,44.74,0,44.74,0,.4.28,78.06-43.41,116.34-64.49C1282.16,1162.09,1256.27,1023.7,1221.17,1005.27Z"/><path class="cls-16" d="M1192.68,1152.31c.17.11-18.83,6.59-31.54,1-12-5.29-21-25-20.83-25,5.44-.26,11.41-5,16-36.21l2.31.84,38.94,14s-2.83,12.49-4.65,24.38C1191.38,1141.33,1190.56,1150.89,1192.68,1152.31Z"/><path class="cls-19" d="M1197.57,1107s-2.83,12.49-4.65,24.38c-22.36-4-31.14-26.3-34.29-38.39Z"/><path class="cls-16" d="M1203.36,1119.35s-53.26-7.15-48.3-40.25,1.43-56.32,35.65-53.16,38.92,16.79,40,28.24S1217.35,1120.36,1203.36,1119.35Z"/><path class="cls-17" d="M1228.72,1036s-34.1,29.38-57.3,31.75-32-5.08-32-5.08a90.59,90.59,0,0,0,21.9-29.67,16.29,16.29,0,0,1,13.44-9.61C1191.35,1022,1222.75,1021.35,1228.72,1036Z"/><path class="cls-17" d="M1207.4,1033.4s11.41,11,15,19.21c3.47,7.9,4.51,26.78,1.75,34.28,0,0,17.77-34.56,7.71-51.35C1221.19,1017.73,1207.4,1033.4,1207.4,1033.4Z"/><path class="cls-1" d="M1237.54,1230.78c-1.61,107.83-.44,85.29-12.24,95.52-2.84,2.47-10.83,3.94-21.34,4.63-33.07,2.2-91.19-3.25-93.4-9.36-7.63-21.14-2.24-27.71-8.61-60.08-.66-3.44-1.48-7.17-2.44-11.23-5.31-22.23-10.47-29.79,8.35-65.51,17.07-32.35,34.8-58.61,36.39-57.67,45,26.74,48.67,4.27,48.67,4.27S1238.33,1178.18,1237.54,1230.78Z"/><path class="cls-30" d="M1353,1508.81,1318.34,1602a56.3,56.3,0,0,1-18.39-1.68c-8.29-2.4-17.79-8.66-17.79-8.66s9.61-100,27.54-157.45Z"/><path class="cls-1" d="M1192.92,1131.34s46.34,7.86,51.78,27.81,37.46,137.23,37.46,137.23-23.56,4.24-34.44-6.65-37.86-101-37.86-101Z"/><path class="cls-31" d="M1204,1330.93c-33.07,2.2-91.19-3.25-93.4-9.36-7.63-21.14-2.24-27.71-8.61-60.08l16-44.91s-2.64,50,12.11,63.16,60.38,25.39,67.55,36.38C1201,1321.39,1203.29,1326.68,1204,1330.93Z"/><path class="cls-16" d="M1166.07,1309.9s32.62-7.26,37.89-4.37,18.12,13.44,19.73,17.11-11.72-2.79-16-4c-2.81-.75-10.2,1.81-13.86,3-15.39,5.14-24.83,2.5-24.83,2.5Z"/><path class="cls-1" d="M1144.23,1127.06s-43.8,2.7-59,23.85c-21.34,29.77-63.68,156.63-39.41,173.55,27.32,19.06,124.37,5,124.37,5s3.23-15.1-1.27-22.4-77.51-19.09-80.88-22.46,42.13-65.72,42.13-75.83S1144.23,1127.06,1144.23,1127.06Z"/><path class="cls-16" d="M1205.53,1314.61s6.84,8.82,9.08,9.87a6.72,6.72,0,0,0,3.69.79l-4.61-8.29Z"/><path class="cls-16" d="M1204,1305.53l19.87,9.65s-.85,1.38-3.3,1.27-8.61-2.37-8.61-2.37Z"/><polygon class="cls-12" points="1214.61 1337.98 1371.8 1337.98 1419.08 1220.4 1262.14 1220.4 1214.61 1337.98"/><polygon class="cls-23" points="1373.64 1333.4 1166.07 1333.4 1166.07 1337.98 1371.8 1337.98 1373.64 1333.4"/><path class="cls-1" d="M1332.12,1279.19c1.18-4.13-1.21-7.48-5.34-7.48a10.73,10.73,0,0,0-9.63,7.48c-1.18,4.13,1.2,7.49,5.34,7.49S1330.93,1283.32,1332.12,1279.19Z"/><path class="cls-9" d="M2035.59,1712.2h.46a5,5,0,0,0,4.79-5.2l-7.27-333.8-21.43-2.65L2030.42,1707A5.31,5.31,0,0,0,2035.59,1712.2Z"/><path class="cls-9" d="M1166.85,1712.2h-.45a5,5,0,0,1-4.8-5.2l7.27-333.8,21.43-2.65L1172,1707A5.33,5.33,0,0,1,1166.85,1712.2Z"/><rect class="cls-9" x="1131.05" y="1339.06" width="943.94" height="40.28" rx="13.6"/><path class="cls-6" d="M944.85,767c-3.46-85.7,68.38-123.78,141.83-123.78s153.39,19,160.32,133c4.45,73.32-34.63,118.43-147.18,118.43-38,0-67.45-6-90-16.66l-56.26,50,27.65-69.1C956.67,836.07,946.35,804,944.85,767Z"/><path class="cls-17" d="M2614.35,1711.83s2.07-16.1,6.86-25.67,35.25-3.49,35.25-3.49,6.09,5.23,7.39,29.59Z"/><path class="cls-17" d="M2510.57,1711.61c7.16-4.37,3.09-37,3.09-37s-33.35-26.68-37.94-6.25-31.68,29.6-47.11,32.1c-10.65,1.73-13.94,7.62-15,11.11Z"/><path class="cls-32" d="M2579.65,1474.57a155.77,155.77,0,0,0-2.44,18c-3.1,60.48-50.91,198.76-59.46,202-13.23,5-34.07-5.62-45-9.09-4.51-1.44-7.56-6-6.56-10.62,23.68-108.84,32.38-265.56,35.54-358.35,1.6-46.73,9.63-79,9.63-79s116.59-31.1,117.28,8.25C2629.29,1280.55,2590.05,1417.12,2579.65,1474.57Z"/><path class="cls-17" d="M2579.65,1474.57l-77.89-158.07c1.6-46.73,9.63-79,9.63-79s116.59-31.1,117.28,8.25C2629.29,1280.55,2590.05,1417.12,2579.65,1474.57Z"/><path class="cls-32" d="M2553.71,1245.87l61.64,446.73s27.07,6.53,48.12,1.31c0,0,18.05-237.6,16.54-295s12.95-153.7-3.3-164.31S2553.71,1245.87,2553.71,1245.87Z"/><path class="cls-25" d="M2688.73,1238.42a8.57,8.57,0,0,1-6.17,8.84c-8.6,2.49-18.52,4.23-37.64,8.19a365.35,365.35,0,0,1-71.8,7.22c-47.21.3-65.09-16-65.09-16-2,0,1.08-9.84,3.88-56.82,1-15.92,1.86-36.09,2.52-61.59.6-22.94,1-50.2,1-82.53.05-38.9,60.25-80.75,61.36-80.75l0,0c0,5.6,8.82,15.94,22.42,16.83,16.13,1.06,35.93-7,35.93-16.27,0-.09,29.17,46.67,39.53,96.49C2680,1087.14,2677.85,1086.47,2688.73,1238.42Z"/><path class="cls-25" d="M2576.83,965s-56-.48-69.45,18.42-43,120.55-27.6,154.37,44.26-14,60.27-34.71S2576.83,965,2576.83,965Z"/><path class="cls-16" d="M2576.26,956.46l0,5.79s-1.57,18.1,20.71,20.74,38.83-3.38,38.23-17.34c-2-10.82-3.87-21.92-4-30.87a63.45,63.45,0,0,1,.79-10.84l-43.18-.86-12.72,2.08Z"/><path class="cls-33" d="M2576.1,925.16l.16,31.3a36.46,36.46,0,0,0,15.57,3.44c19.85,0,32.68-14.56,39.38-25.12a63.45,63.45,0,0,1,.79-10.84l-43.18-.86Z"/><path class="cls-16" d="M2635.31,917c-5,27-39.8,26.08-54.84,24.39-4.23-.47-6.89-1-6.89-1-4.78-1.28-7.44-8.79-8.68-18.64-2.45-19.48.65-48.08,3.94-55.39,4.95-11,14.28-22.91,49.33-14.32S2641.74,882.44,2635.31,917Z"/><path class="cls-26" d="M2519.59,1040.76s-21.66,47.82-21,62.16a74.71,74.71,0,0,1,21,2.7C2536.51,1110.66,2519.59,1040.76,2519.59,1040.76Z"/><path class="cls-17" d="M2558.09,840.67a116,116,0,0,0,33.61-9.1c14.77-6.42,33.4.65,39.44,3.84a8.94,8.94,0,0,0-1.47-3.64s2.71,1.93,3.12,4.62c.27.2.4.34.33.39s3.08-.56,5.05.33c0,0-1.38-.2-1.88.69a.75.75,0,0,1-.22.25c23,11.13,25.16,47.53,17.75,56-8.92,10.13-22.38,33.06-22.38,33.06s-1.13-5.5.49-14.42-6.08-8.91-15.81-13-1.62-15.4-10.13-22.29-39.72-2.84-39.32-8.11C2555.09,865.05,2558.09,841.85,2558.09,840.67Z"/><path class="cls-26" d="M2642.37,1130.34c-9.14,36.7-108,55.67-130.46,59.53,1-15.92,1.86-36.09,2.52-61.59Z"/><path class="cls-16" d="M2620.67,1142.27c.94,0,22-3.14,25.74-5s21-26.37,9.72-32.65-41.58,18.83-41.58,18.83Z"/><path class="cls-25" d="M2492.74,1149.54s81.35,4.42,135.94-7.27c0,0,1.38-15.77-15.78-22.78,0,0-85.08-18-105.52-13S2492.74,1149.54,2492.74,1149.54Z"/><path class="cls-25" d="M2679.56,1085.7c-16.89,20.36-38.95,37-63.28,40.87h0a45.36,45.36,0,0,1-6-27.17,54.3,54.3,0,0,1,8.86-24.94,55.16,55.16,0,0,0,4.78-9.64c13.29-33.9,11.31-99.24,11.31-99.24s56.42,5.91,74,31C2720,1012,2706.24,1053.52,2679.56,1085.7Z"/><path class="cls-33" d="M2580.47,941.38c-4.23-.47-6.89-1-6.89-1-4.78-1.28-7.44-8.79-8.68-18.64,8.95,2.21,13,9.12,14.76,12.06C2580.43,935.12,2580.59,938.09,2580.47,941.38Z"/><path class="cls-16" d="M2557.74,956.63s-19.49-32.15-4.33-33.55,21.24,8.86,23.42,12.62-.57,20.76-.57,20.76Z"/><path class="cls-25" d="M2632,1098.32a41.63,41.63,0,0,1-3.32,11.16,53.46,53.46,0,0,1-12.4,17.09h0c-50.61-22.85-60.85-101.28-62.56-144.38-.69-17.32,0-28.94,0-28.94,22.83-7.56,29.25,5.58,29.25,5.58s26.95,64.09,40.93,106C2629.24,1080.84,2632.69,1093.63,2632,1098.32Z"/><path class="cls-26" d="M2679.56,1085.7c-16.89,20.36-38.95,37-63.28,40.87h0c-50.61-22.85-60.85-101.28-62.56-144.38,0,0,23.95,86.85,56.54,117.21,5.89,5.49,12.07,9.13,18.43,10.08,0,0,41.1-11.61,49.72-22.55C2679,1086.14,2679.39,1085.75,2679.56,1085.7Z"/><polygon class="cls-30" points="1757.84 1339.06 1600.65 1339.06 1553.37 1221.47 1710.32 1221.47 1757.84 1339.06"/><polygon class="cls-30" points="1598.81 1334.48 1806.38 1334.48 1806.38 1339.06 1600.65 1339.06 1598.81 1334.48"/><path class="cls-1" d="M1640.33,1280.27c-1.18-4.14,1.21-7.49,5.34-7.49a10.71,10.71,0,0,1,9.63,7.49c1.19,4.13-1.2,7.48-5.34,7.48A10.73,10.73,0,0,1,1640.33,1280.27Z"/><path class="cls-34" d="M3033,1709.22v1a3.12,3.12,0,0,1-3.28,2.91H146.24a3.12,3.12,0,0,1-3.27-2.91v-1a3.13,3.13,0,0,1,3.27-2.92H3029.72A3.13,3.13,0,0,1,3033,1709.22Z"/></svg>