<?xml version="1.0" encoding="utf-8"?>
<!-- Generator: Adobe Illustrator 26.0.1, SVG Export Plug-In . SVG Version: 6.00 Build 0)  -->
<svg version="1.1" id="Layer_1" xmlns="http://www.w3.org/2000/svg" xmlns:xlink="http://www.w3.org/1999/xlink" x="0px" y="0px"
	 viewBox="0 0 24.5 23" style="enable-background:new 0 0 24.5 23;" xml:space="preserve">
<path d="M12.3,7.3l-0.7-0.7c-1.7-1.7-4.8-1.1-5.9,1C5.1,8.6,5,10.1,6,12c0.9,1.8,2.8,4,6.3,6.4c3.5-2.4,5.4-4.5,6.3-6.4
	c1-1.9,0.8-3.4,0.3-4.4c-1.1-2.2-4.2-2.8-5.9-1L12.3,7.3z M12.3,19.5C-3.1,9.4,7.5,1.5,12.1,5.7c0.1,0.1,0.1,0.1,0.2,0.2
	c0.1-0.1,0.1-0.1,0.2-0.2C17,1.5,27.6,9.4,12.3,19.5z"/>
</svg>
