<?xml version="1.0" encoding="utf-8"?>
<!-- Generator: Adobe Illustrator 26.0.1, SVG Export Plug-In . SVG Version: 6.00 Build 0)  -->
<svg version="1.1" id="Layer_5_copy" xmlns="http://www.w3.org/2000/svg" xmlns:xlink="http://www.w3.org/1999/xlink" x="0px"
	 y="0px" viewBox="0 0 49.4 49.4" style="enable-background:new 0 0 49.4 49.4;" xml:space="preserve">
<style type="text/css">
	.st0{fill:#FFFFFF;}
</style>
<g id="Layer_2">
	<path class="st0" d="M39.7,49.4H9.8c-5.4,0-9.8-4.4-9.8-9.8V9.8C0,4.4,4.4,0,9.8,0h29.9c5.4,0,9.8,4.4,9.8,9.8v29.9
		C49.4,45.1,45.1,49.4,39.7,49.4z"/>
</g>
<path d="M44.4,24.7V4.2h-10v2.9c-9.7-5.8-22.3-2.6-28.1,7.1s-2.6,22.3,7.1,28.1c3.2,1.9,6.8,2.9,10.5,2.9c3.7,0,7.3-1,10.5-2.9v2.9
	h10V24.7z M23.9,35.2c-5.8,0-10.5-4.7-10.5-10.5c0-5.8,4.7-10.5,10.5-10.5c5.7,0,10.4,4.6,10.5,10.3v0.4
	C34.3,30.6,29.7,35.2,23.9,35.2z"/>
</svg>
