<?xml version="1.0" encoding="utf-8"?>
<!-- Generator: Adobe Illustrator 26.0.1, SVG Export Plug-In . SVG Version: 6.00 Build 0)  -->
<svg version="1.1" id="Twitter" xmlns="http://www.w3.org/2000/svg" xmlns:xlink="http://www.w3.org/1999/xlink" x="0px" y="0px"
	 viewBox="0 0 115.7 115.7" style="enable-background:new 0 0 115.7 115.7;" xml:space="preserve">
<path d="M57.8,0C25.9,0,0,25.9,0,57.8c0,31.9,25.9,57.8,57.8,57.8c31.9,0,57.8-25.9,57.8-57.8S89.8,0,57.8,0z M86.1,43.5
	c0,0,1.4,6.8-3.6,18.8c-4.9,12-17.2,23.3-34,24.3c-16.8,1.1-25.9-6.4-25.9-6.4c12.6,1,18.2-4.2,21.2-5.9C32.1,72.8,30.4,64,30.4,64
	c1.1,0.5,4.6,0.3,6.5-0.2C25.4,61,25.2,49.4,25.2,49.4s4.3,2.2,6.7,1.8c-11.1-8.4-4.6-19.4-4.6-19.4c14.6,16,30.2,15.1,30.2,15.1
	l0.1,0.1c-0.3-1.1-0.4-2.3-0.4-3.5c0-8,6.5-14.5,14.5-14.5c4.2,0,8,1.8,10.7,4.7l0.1-0.1c5.2-0.3,9-3.1,9-3.1
	c-1.6,4.6-4.9,6.7-6.3,7.5c0,0,0,0.1,0.1,0.1c1.8-0.4,6.7-1.6,8-2C90.2,41.3,86.1,43.5,86.1,43.5z"/>
</svg>
