<?xml version="1.0" encoding="utf-8"?>
<!-- Generator: Adobe Illustrator 26.0.1, SVG Export Plug-In . SVG Version: 6.00 Build 0)  -->
<svg version="1.1" id="linkedin" xmlns="http://www.w3.org/2000/svg" xmlns:xlink="http://www.w3.org/1999/xlink" x="0px" y="0px"
	 viewBox="0 0 115.7 115.7" style="enable-background:new 0 0 115.7 115.7;" xml:space="preserve">
<path d="M57.8,0C25.9,0,0,25.9,0,57.8c0,31.9,25.9,57.8,57.8,57.8c31.9,0,57.8-25.9,57.8-57.8C115.7,25.9,89.8,0,57.8,0z M33.8,26.1
	c3.9,0,7.1,2.9,7.1,6.5s-3.2,6.5-7.1,6.5c-3.9,0-7.1-2.9-7.1-6.5S29.9,26.1,33.8,26.1z M41,81.7H26.9V44.9H41V81.7z M88.9,81.7H74.7
	V61.5c0-2.3-0.4-3.9-1.3-4.9c-0.9-1-2.1-1.4-3.6-1.4c-1.7,0-3.1,0.6-4.2,1.9c-1.1,1.3-1.6,3.6-1.6,7v17.6H50V44.9h13.1v6
	c2-2.4,3.9-4.2,5.9-5.2c2-1,4.4-1.6,7.3-1.6c3.9,0,6.9,1.2,9.2,3.5c2.2,2.3,3.3,5.9,3.3,10.7L88.9,81.7L88.9,81.7z"/>
</svg>
