<?xml version="1.0" encoding="utf-8"?>
<!-- Generator: Adobe Illustrator 26.0.1, SVG Export Plug-In . SVG Version: 6.00 Build 0)  -->
<svg version="1.1" id="Layer_2_00000096051835725838386360000005431754464646046373_"
	 xmlns="http://www.w3.org/2000/svg" xmlns:xlink="http://www.w3.org/1999/xlink" x="0px" y="0px" viewBox="0 0 69.5 66.9"
	 style="enable-background:new 0 0 69.5 66.9;" xml:space="preserve">
<style type="text/css">
	.st0{fill:#870AA0;}
	.st1{fill:#FFFFFF;}
	.st2{fill:#FA1996;}
	.st3{fill:#CD9BD7;}
</style>
<g>
	<rect x="50.1" y="55.9" class="st0" width="19.4" height="11"/>
	<polyline class="st1" points="25,61.4 34.1,61.4 43.5,61.4 50.6,61.4 	"/>
	<rect x="25" y="55.9" class="st2" width="25.6" height="11"/>
	<polyline class="st1" points="0,61.4 8.8,61.4 18,61.4 25,61.4 	"/>
	<rect x="0" y="55.9" class="st3" width="25" height="11"/>
	<polyline class="st1" points="29.2,43 38.1,43 47.3,43 54.3,43 	"/>
	<rect x="29.2" y="37.5" class="st0" width="25" height="11"/>
	<polyline class="st1" points="8.7,43 16.4,43 24.5,43 30.6,43 	"/>
	<rect x="8.7" y="37.5" class="st2" width="22" height="11"/>
	<polyline class="st1" points="0,43 3.2,43 6.6,43 9.1,43 	"/>
	<rect x="0" y="37.5" class="st3" width="9.1" height="11"/>
	<polyline class="st1" points="24.9,24.1 28,24.1 31.2,24.1 33.6,24.1 	"/>
	<rect x="24.9" y="18.6" class="st0" width="8.7" height="11"/>
	<rect x="14.3" y="18.6" class="st2" width="11.3" height="11"/>
	<polyline class="st1" points="0,24.1 5.1,24.1 10.3,24.1 14.3,24.1 	"/>
	<rect y="18.6" class="st3" width="14.3" height="11"/>
	<polyline class="st1" points="0,5.5 2.2,5.5 4.4,5.5 6.2,5.5 	"/>
	<rect x="0" y="0" class="st3" width="6.2" height="11"/>
	<polyline class="st1" points="5.6,5.5 8.7,5.5 11.9,5.5 14.3,5.5 	"/>
	<rect x="5.6" y="0" class="st2" width="8.7" height="11"/>
	<polyline class="st1" points="14.3,5.5 16.2,5.5 18.1,5.5 19.6,5.5 	"/>
	<rect x="14.3" y="0" class="st0" width="5.3" height="11"/>
</g>
</svg>
