<?xml version="1.0" encoding="utf-8"?>
<!-- Generator: Adobe Illustrator 26.0.1, SVG Export Plug-In . SVG Version: 6.00 Build 0)  -->
<svg version="1.1" id="Layer_1" xmlns="http://www.w3.org/2000/svg" xmlns:xlink="http://www.w3.org/1999/xlink" x="0px" y="0px"
	 viewBox="0 0 2068.8 1428.5" style="enable-background:new 0 0 2068.8 1428.5;" xml:space="preserve">
<style type="text/css">
	.st0{fill:#B75742;}
	.st1{fill:#F47257;}
	.st2{fill:#3C8F7C;}
	.st3{fill:#96D9C9;}
	.st4{fill:#50BFA5;}
	.st5{fill:#F7CC7F;}
	.st6{fill:#FAE0B2;}
	.st7{fill:#FFFFFF;}
	.st8{fill:#F48C7F;}
	.st9{fill:#13375B;}
	.st10{fill:#86B1F2;}
	.st11{fill:#F7A491;}
	.st12{fill:#F8A492;}
	.st13{fill:#F47458;}
	.st14{fill:#466EB6;}
	.st15{fill:#184655;}
	.st16{fill:#355389;}
</style>
<path class="st0" d="M1615.1,1248.6c-30.5-25.5-46.1-49.1-48.9-53.5l107.2-67.7c0,0-0.2-0.2-0.5-0.7c0.1,0.1,9,13.3,26.9,27.4
	c22.8,18.1,49.9,29.9,78.7,34.3c37.5,6,76.1-6.5,102-18.1c17-7.5,33.2-16.7,48.3-27.4l95,18.4l-17.9,82.2
	c-37.1,28.5-96.1,56.6-150.8,67.5C1764.3,1329,1677.7,1300.9,1615.1,1248.6z"/>
<rect x="480.2" y="868.6" class="st1" width="1237.3" height="129.5"/>
<path class="st2" d="M1388.3,1327c-279-147.5-582-238.3-893.2-267.6c11.5-135,23-270,34.6-405c359.7,33.9,710.1,138.9,1032.7,309.4
	L1388.3,1327z"/>
<path class="st3" d="M522.6,985.3c7.9-84.2,15.7-168.4,23.6-252.6c32.7,3.4,62-17.7,65.5-48c299.9,37.7,592.2,125.2,865.9,259.5
	c-12.2,27.7,2.1,61.8,31.6,77.1l-106.9,227.6c-27.1-14.1-59.2-2.4-71.3,25.2c-240.3-117.8-497-194.8-760.4-227.8
	C574.1,1016.1,552.7,988.4,522.6,985.3z"/>
<path class="st4" d="M1166.4,999.3c-25.2,72.4-102.7,109.3-174.6,87.2c-71.9-22.3-118.1-97.4-101.9-172.6s95.9-120,176.8-95
	S1191.5,926.9,1166.4,999.3z"/>
<path class="st2" d="M991.2,1060.9c2-8.1,4-16.2,6-24.2c-10.3-3.3-20.2-8-29.3-13.7c-6.8-4.3-9.3-13.1-5.6-20.3l0.4-0.8
	c3.9-7.3,13-10,20.3-6.1c0.5,0.3,0.9,0.5,1.4,0.8c8.3,5.5,17.3,9.7,26.9,12.4c14.7,4.1,26.2,1.5,28.8-8.7c2.5-9.7-4.2-18.2-22-30
	c-25.7-17-42.1-34.7-36.4-59.6c5.1-22.6,25.9-36.1,56.3-33.4c2-8.1,4-16.2,6-24.3c8.9,2.5,17.8,5,26.7,7.6l-5.7,22.4
	c8.3,2.7,16.2,6.2,23.8,10.6c7.7,4.5,10.4,14,6.2,21.1l0,0c-4.3,7.4-14.3,9.5-22.1,4.7c-7-4.4-14.7-7.7-22.7-10
	c-17.4-4.9-24.8,0.7-26.5,7.9c-2.1,8.4,6,16.3,26.3,30.9c28.7,19.8,37.2,37.8,30.9,60.5c-6.3,22.6-27.7,36.7-58.2,33.4
	c-2.2,8.7-4.5,17.3-6.7,26C1007.7,1065.6,999.4,1063.2,991.2,1060.9z"/>
<path class="st4" d="M847.2,911.1c-71.1-16.4-142.8-29.7-215.2-40l5-38.9c73.3,10.4,146.1,23.9,218.2,40.6
	C852.6,885.5,849.9,898.3,847.2,911.1z"/>
<path class="st4" d="M1401.7,1107.9c-66.2-32.4-133.5-61.8-201.8-88.3c4.3-12.3,8.7-24.6,13-36.9c69.3,26.9,137.5,56.7,204.7,89.6
	L1401.7,1107.9z"/>
<path class="st2" d="M1518.7,863.6c-287.9,60.1-562,180.7-807.9,355.2c-66.4-114.7-132.9-229.3-199.3-344
	c284.3-201.8,601.3-341.2,934.1-410.7C1469.9,597.3,1494.3,730.5,1518.7,863.6z"/>
<path class="st3" d="M689.9,1142.5L567.1,926.7c26-18.1,35.9-53.5,21.7-79.8c242.3-160.8,506.7-277,783.2-344.4
	c6.4,29.7,35.9,47.8,66.1,41.2c15.8,83,31.6,166,47.5,248.9c-27.8,6.1-45,35.7-38.7,65.4c-242.8,59.1-475,161.2-687.8,302.4
	C745,1134.3,713.8,1125.9,689.9,1142.5z"/>
<path class="st4" d="M1172.9,744.2c21.7,73.6-15.1,152.2-80.5,180.4c-65.4,28-141.2-2.3-171-72.4s4.2-156.4,77.8-188
	S1151.3,670.7,1172.9,744.2z"/>
<path class="st2" d="M1077.8,904.7c-3-7.7-6-15.4-9-23.1c-9.4,3.9-19.2,6.5-29.3,7.7c-7.5,0.9-14.3-4.6-15.4-12.6
	c-0.1-0.3-0.1-0.6-0.1-1c-1.3-8.8,4.7-17.2,13.1-18c9.3-0.9,18.3-3.3,26.8-7.2c13.1-6.1,20.1-15.5,16.4-25.3
	c-3.5-9.3-13.2-11.8-32.9-9.9c-28.4,2.8-50.4-0.8-60-24.2c-8.8-21.2-0.9-45.2,23-62.3c-3-7.7-6-15.4-9.1-23.1
	c8-3.7,15.9-7.4,23.9-11l8.2,21.5c7.5-3.1,15.4-5.4,23.4-6.7c7.7-1.2,15,4.1,16.2,11.8c0.1,0.4,0.1,0.7,0.1,1.1l0,0
	c0.9,8.6-5.3,16.7-13.7,17.8c-7.7,1-15.2,3.2-22.3,6.5c-15.6,7.1-17.9,16.3-15.2,23.1c3.2,8,13.5,9.2,36.6,7.8
	c32.2-2.5,48.4,6.4,56.4,28.5c7.9,21.9,0,46.8-24.4,63.6c3.2,8.3,6.3,16.6,9.5,24.9C1092.6,897.8,1085.2,901.2,1077.8,904.7z"/>
<path class="st4" d="M888.3,877c-61.6,32.2-122,67.2-181.1,105c-6-11.4-12-22.8-17.9-34.2C749.2,909.5,810.4,874,873,841.4
	C878.1,853.3,883.2,865.2,888.3,877z"/>
<path class="st4" d="M1407,680.9c-66.8,16.4-132.8,35.7-198,58.1l-10.9-37.5c66.1-22.7,133-42.3,200.8-58.9
	C1401.6,655.4,1404.3,668.2,1407,680.9z"/>
<path class="st2" d="M1564.6,1115.3c-299.4-18.2-599.2,25.8-883.6,129.5c-39.2-128.6-78.3-257.2-117.5-385.8
	C892.4,739.1,1239,688.3,1585.2,709.3C1578.3,844.6,1571.5,979.9,1564.6,1115.3z"/>
<path class="st3" d="M678.1,1165.4L606.6,924c30-10.7,48.1-42.3,40.2-71.5c277.6-91.3,566.8-133.7,856.6-125.5
	c-0.6,30.5,24.4,55.8,55.9,57.4l-10.9,253.5c-29-1.5-53,22.6-53.6,53.1c-254.5-7.2-508.4,30-752.3,110.2
	C734.6,1172,705.7,1155.6,678.1,1165.4z"/>
<path class="st4" d="M1249.6,907.9c4.3,76.9-50.4,143.3-121.8,153.2c-71.4,9.7-139.5-39.7-152.7-115.4s40.6-150.3,120.9-161.3
	S1245.3,831.1,1249.6,907.9z"/>
<path class="st2" d="M1118,1038.1c-1.2-8.2-2.4-16.5-3.6-24.8c-10.2,1.3-20.6,1.2-30.8-0.3c-7.8-1.3-13.2-8.4-12.4-16.3
	c0-0.3,0-0.6,0.1-1c0.8-8.8,8.7-15.3,17.2-14c9.3,1.6,18.8,1.6,28.2,0.1c14.4-2.4,23.6-9.7,22.2-20.1c-1.3-9.9-10.3-15-30.3-18.3
	c-28.8-4.8-49.7-14.1-53.8-39.3c-3.7-22.8,9.7-43.9,37.3-54.2c-1.2-8.2-2.4-16.5-3.6-24.7c8.8-1.5,17.5-2.9,26.3-4.3
	c1.1,7.7,2.1,15.3,3.2,23c8.2-1,16.5-1.1,24.8-0.3c8.2,0.9,14.1,8.2,13.2,16.3c0,0.2,0,0.3-0.1,0.5l0,0c-1.2,8.6-9.1,14.7-17.7,13.6
	c-7.8-1.1-15.8-0.9-23.6,0.3c-17.1,2.8-21.6,11.1-20.5,18.3c1.3,8.6,11.2,12.4,34.5,17.3c32.4,6.2,46.6,19,49.3,42.5
	c2.7,23.3-10.9,45.3-39,55l3.6,26.6C1134.2,1035.3,1126.1,1036.7,1118,1038.1z"/>
<path class="st4" d="M936.6,961.1c-68.6,14.8-136.6,32.7-204,53.6l-9.8-37.8c68.3-21.2,137.3-39.3,206.8-54.3
	C932,935.3,934.3,948.2,936.6,961.1z"/>
<path class="st4" d="M1496.4,908.8c-70.1-1.9-140-0.7-209.8,3.7c-0.7-13.1-1.4-26.2-2.1-39.2c70.8-4.4,141.7-5.7,212.8-3.8
	C1497,882.7,1496.7,895.7,1496.4,908.8z"/>
<rect x="480.2" y="868.6" class="st1" width="1237.3" height="544.5"/>
<path class="st0" d="M1717.4,1274.1h-306.2c-13.6,0-24.6,11.5-24.6,25.7l0,0c0,14.2,11,25.7,24.6,25.7h-39.7
	c-13.6,0-24.6,11.5-24.6,25.7l0,0c0,14.2,11,25.7,24.6,25.7h6.8c-13.6,0-24.6,11.5-24.6,25.7c0,3.6,0.7,7.1,2.1,10.3h361.5V1274.1z"
	/>
<rect x="525.8" y="895.4" class="st0" width="1126.3" height="42.3"/>
<path class="st2" d="M508.1,1068.2h508.3c23,0,41.6,18.6,41.6,41.6v255c0,23-18.6,41.6-41.6,41.6H508.1c-23,0-41.6-18.6-41.6-41.6
	v-255C466.5,1086.8,485.2,1068.2,508.1,1068.2z"/>
<rect x="504.6" y="1135.5" class="st5" width="145.6" height="84.7"/>
<rect x="762.2" y="1114" class="st5" width="258.3" height="15.8"/>
<rect x="526" y="1294.6" class="st5" width="475.3" height="19.5"/>
<rect x="526" y="1340.6" class="st5" width="475.3" height="19.5"/>
<rect x="540.1" y="1007.6" class="st0" width="525.2" height="14"/>
<circle class="st6" cx="1365.8" cy="800" r="117"/>
<path class="st5" d="M1446.1,743.6c31.1,44.4,20.4,105.6-24,136.7c-44.4,31.1-105.6,20.4-136.7-24c-31.1-44.4-20.4-105.6,23.9-136.7
	C1353.8,688.5,1415,699.2,1446.1,743.6C1446.1,743.6,1446.1,743.6,1446.1,743.6z"/>
<path class="st7" d="M1377.1,869.1l-4.3-15.8c-6.9,1.5-13.9,2.1-20.9,1.8c-5.2-0.3-9.4-4.6-9.4-9.8v-0.6c-0.1-5.5,4.4-10,9.9-10.1
	c0.2,0,0.4,0,0.7,0c6.4,0.4,12.7-0.2,18.9-1.8c9.5-2.6,15-8,13.2-14.7c-1.7-6.3-8.1-8.9-21.6-9.7c-19.4-1.2-33.8-6.2-38.2-22.4
	c-4-14.7,3.2-28.9,20.1-37.2l-4.3-15.8l16.3-4.4l4,14.7c5.2-1.2,10.5-1.9,15.8-1.9c5.5,0,9.9,4.4,10,9.8l0,0
	c0.1,5.5-4.4,10-9.9,10.1c-0.1,0-0.2,0-0.3,0c-5.1-0.1-10.2,0.5-15.2,1.9c-10.8,2.9-13.1,8.5-11.8,13.2c1.5,5.5,8.3,7.4,23.8,8.9
	c21.7,1.6,32.2,8.6,36.2,23.6c4,14.8-3,30.3-21.3,38.8l4.6,17L1377.1,869.1z"/>
<circle class="st6" cx="1476.2" cy="1174.3" r="117"/>
<path class="st5" d="M1556.5,1118c31.1,44.4,20.4,105.6-24,136.7c-44.4,31.1-105.6,20.4-136.7-24c-31.1-44.4-20.4-105.6,24-136.7
	C1464.1,1062.8,1525.4,1073.6,1556.5,1118C1556.5,1117.9,1556.5,1117.9,1556.5,1118z"/>
<path class="st7" d="M1487.5,1243.4l-4.3-15.8c-6.9,1.5-13.9,2.2-20.9,1.8c-5.2-0.3-9.4-4.6-9.4-9.8v-0.6c-0.1-5.5,4.4-10,9.9-10.1
	c0.2,0,0.5,0,0.7,0c6.4,0.5,12.7-0.1,18.9-1.8c9.5-2.6,15-8,13.2-14.6c-1.7-6.3-8.1-8.9-21.6-9.7c-19.4-1.2-33.8-6.2-38.2-22.4
	c-4-14.7,3.2-28.9,20.1-37.2l-4.3-15.8l16.3-4.4l4,14.7c5.2-1.2,10.5-1.8,15.8-1.9c5.5,0,9.9,4.4,10,9.8l0,0
	c0.1,5.5-4.4,10-9.9,10.1c-0.1,0-0.2,0-0.3,0c-5.1-0.1-10.2,0.5-15.2,1.9c-10.8,2.9-13.1,8.5-11.8,13.2c1.5,5.5,8.3,7.4,23.8,8.9
	c21.7,1.6,32.2,8.6,36.2,23.6c4,14.8-3,30.3-21.3,38.8l4.6,17L1487.5,1243.4z"/>
<circle class="st6" cx="1248.7" cy="1028" r="117"/>
<circle class="st5" cx="1248.9" cy="1027.8" r="98.1"/>
<path class="st7" d="M1218.5,1090.9l5.6-15.4c-6.5-2.7-12.6-6.2-18.2-10.5c-4.1-3.2-5-9.1-2.1-13.5l0.4-0.5
	c3.1-4.6,9.4-5.7,13.9-2.6c0.2,0.1,0.4,0.3,0.5,0.4c4.9,4,10.5,7.2,16.5,9.4c9.2,3.3,16.9,2.1,19.2-4.4c2.2-6.2-1.6-11.9-12.1-20.3
	c-15.2-12.1-24.1-24.5-18.4-40.2c5.2-14.3,19.3-21.8,37.9-18.9l5.6-15.4l15.9,5.8l-5.2,14.3c4.9,2,9.6,4.5,14,7.5
	c4.4,3.1,5.6,9.3,2.5,13.8l0,0c-3.1,4.6-9.4,5.7-13.9,2.6c-0.1-0.1-0.2-0.1-0.2-0.2c-4.1-3-8.7-5.5-13.5-7.2
	c-10.5-3.8-15.6-0.5-17.2,4c-1.9,5.3,2.5,10.8,14.4,21c16.8,13.8,21.4,25.6,16.1,40.1c-5.2,14.4-19.9,23.1-39.7,19.5l-6,16.5
	L1218.5,1090.9z"/>
<rect x="1122.4" y="1095.4" class="st8" width="529.7" height="283.9"/>
<path class="st0" d="M1386.7,1299.9L1386.7,1299.9c0,14.2,11,25.7,24.6,25.7h-39.7c-13.6,0-24.6,11.5-24.6,25.7l0,0
	c0,14.2,11,25.7,24.6,25.7h6.8c-3.4,0-6.8,0.7-9.9,2.2H1652v-105.1h-240.8C1397.7,1274.1,1386.7,1285.6,1386.7,1299.9z"/>
<path class="st9" d="M47.1,1404.8L47.1,1404.8c0,4.6,3.5,8.3,7.7,8.3h1920.5c4.3,0,7.7-3.7,7.7-8.3l0,0c0-4.6-3.4-8.3-7.7-8.3H54.8
	C50.6,1396.5,47.1,1400.3,47.1,1404.8z"/>
<path class="st5" d="M1720.5,1428.5h-316.1c-12.7,0-23-10.3-23-23l0,0l0,0c0-12.7,10.3-23,23-23l0,0h316.2c12.7,0,23,10.3,23,23l0,0
	l0,0C1743.6,1418.2,1733.3,1428.5,1720.5,1428.5C1720.6,1428.5,1720.5,1428.5,1720.5,1428.5z"/>
<path class="st6" d="M1714.1,1382.6h-316.2c-12.7,0-23-10.3-23-23l0,0l0,0c0-12.7,10.3-23,23-23l0,0h316.2c12.7,0,23,10.3,23,23l0,0
	l0,0C1737.1,1372.3,1726.8,1382.6,1714.1,1382.6L1714.1,1382.6z"/>
<path class="st5" d="M1751.2,1336.7H1435c-12.7,0-23-10.3-23-23l0,0l0,0c0-12.7,10.3-23,23-23l0,0h316.2c12.7,0,23,10.3,23,23l0,0
	l0,0C1774.2,1326.4,1763.9,1336.7,1751.2,1336.7L1751.2,1336.7z"/>
<path class="st3" d="M941.7,255.9l8.3-20.6c-8.7-3.9-16.8-9-24.1-15.1c-5.5-4.6-6.4-12.6-2.2-18.4l0.5-0.7c4.4-6,12.9-7.3,18.9-2.9
	c0.3,0.2,0.5,0.4,0.8,0.6c6.5,5.7,13.9,10.2,21.9,13.5c12.4,5,22.7,3.6,26.2-5c3.3-8.2-1.5-16.2-15.4-28.1
	c-20-17.1-31.5-34.4-23-55.4c7.7-19.1,27.2-28.6,52.2-23.8l8.3-20.6l21.3,8.6l-7.7,19.1c6.6,2.9,12.8,6.6,18.6,10.8
	c5.9,4.5,7.1,12.8,2.7,18.8l0,0c-4.4,6-12.9,7.3-18.9,2.9c-0.1-0.1-0.2-0.2-0.4-0.3c-5.5-4.3-11.5-7.8-18-10.4
	c-14.1-5.7-21.1-1.4-23.5,4.6c-2.9,7.2,2.9,14.8,18.5,29.1c22.1,19.5,27.7,35.6,19.9,55.1c-7.8,19.3-28.1,30.3-54.8,24.6l-8.9,22.1
	L941.7,255.9z"/>
<path class="st10" d="M981,475.7c2.2,3.5,1.5,8.1-1.5,10.9c-7.9,7.1-17,12.6-26.9,16.3c-16.9,6.3-35.6,6.9-52.5-0.7
	c-10.6-4.8-20.2-13.4-27-24.6l-10,3.7c-3.4,1.3-7.2-0.4-8.4-3.8c0,0,0,0,0,0l-0.1-0.3c-1.3-3.4,0.4-7.2,3.8-8.4l8.2-3.1
	c-1.3-2.7-2.2-4.4-2.8-5.9c-1.1-3-2-6.1-2.6-9.2l-8.4,3.2c-3.4,1.3-7.2-0.4-8.4-3.8l0,0c-1.3-3.4,0.4-7.2,3.8-8.4c0,0,0,0,0,0
	l10.2-3.8c-1.6-12.8,0.1-25.4,4.9-36c8.2-17.9,23.5-30.6,41.2-37.2c8.2-3.2,16.8-4.9,25.6-5.1c4.8,0,8.7,3.7,8.9,8.4v0.2
	c0.2,4.9-3.6,9-8.4,9.2c0,0-0.1,0-0.1,0c-6.8,0.3-13.6,1.8-20,4.2c-11.2,4.2-21.2,12-26.8,24.1c-3.5,7.5-4.5,15.8-3,23.9l57.5-21.6
	c3.4-1.3,7.2,0.4,8.4,3.8c0,0,0,0,0,0l0,0c1.3,3.4-0.4,7.2-3.8,8.4c0,0,0,0,0,0l-60.1,22.5c0.8,2.9,1.6,5.8,2.3,7.6
	c0.9,2.3,1.7,4.6,3.1,7.6l60.2-22.6c3.5-1.3,7.3,0.4,8.6,3.9c0,0,0,0,0,0l0,0c1.3,3.5-0.4,7.3-3.9,8.6c0,0,0,0,0,0l-57.6,21.6
	c4.2,6.3,10,11.4,16.9,14.7c12.6,5.5,24.1,5.2,36.9,0.4c6.9-2.6,13.4-6.2,19.2-10.8c3.7-3,9.2-2.3,12.1,1.4
	C980.6,475.1,980.8,475.4,981,475.7L981,475.7z"/>
<path class="st6" d="M1125.8,239.6l27.9,9.2c0,0,44.3-14.4,48.7-23.4s5.6-30.9,11.9-31.5s18.5,1.5,21.4,16.4
	c2.1,10.9-13.8,42.3-11.3,45.7c1.6,2.1,17.5,7.8,29.2,11.9c7.7,2.7,13.3,9.5,14.4,17.6l0,0c0.8,5.5-2.3,10.8-7.5,12.9l-8,3.1
	l2.6,8.3c1.9,6.2-1.5,12.8-7.6,14.9l-6.2,2.1l2,5c2.4,6.2-0.6,13.1-6.8,15.5c-0.3,0.1-0.6,0.2-0.9,0.3l-5.4,1.6l0.2,1.5
	c0.9,6-2.8,11.8-8.7,13.4l-5.4,1.4l-74.4-24.5c-7-2.3-13.4-6.1-18.9-11l-24.7-13c-2.7-1.4-3.9-4.6-2.9-7.5l22.9-66
	C1119.2,240.3,1122.6,238.6,1125.8,239.6z"/>
<path class="st11" d="M324.8,1255.3c0,0-36.7,26.4-42.4,34.3c-8.3,11.4,62.1,32.6,54.4,19.3c-1.8-3.1-6.8-13.3-7.1-14.4
	c-1.2-5.4,13.8-20,13.8-20L324.8,1255.3z"/>
<path class="st5" d="M355.9,1331.2L331,1296c0,0-15.5-3.6-31.5-21.6c0,0-14.3,5.5-23.2,17.3c13.2,13.7,27.4,26.5,42.3,38.2
	c10.8,9,23,15.9,36.3,20.6C376,1357.6,355.9,1331.2,355.9,1331.2z"/>
<path class="st12" d="M18.4,773.6c0,0,4.5,4,6.1,5.2c1.9,1.4,7.8,5.3,7.8,5.3s21.4,12.2,22.1,10.6s0.7-6.2-0.4-7.4s-4.1-2.5-5.2-3.7
	s-1.4-3.7-0.1-5s8.7,2.6,8.7,2.6s5.9,3.3,8.4,7.3c8.6,13.8,6,14.6,7.1,16.3c1.4,2.1,31.4,15.7,31.4,15.7s89.7,37.3,94.6,39.3h0.1
	c0.7,4.2-1.6,8-2.7,11.7c-2.1,12.8-6,13.7-8.9,26c-13.8-7-109-59.4-118.7-64.9c0,0-14.5-2.5-23.6-4.3s-17-7.6-19.5-8.5
	c-6.2-2.8-12-6.3-17.4-10.5c-7.7-6,2.2-3.7,2.2-3.7s16.1,8.6,16.6,7.2c0.3-1-8.8-5.2-17.3-11.7c-2.2-1.7-4.4-3.3-6.4-4.9
	c-5.2-4-4.3-8.3,1.8-4.9c2.8,1.5,5.5,3.2,8,5.1c2.5,2,5.4,3,7.8,4.3c4.7,2.7,8,4.7,8,4.4s1.3-0.4-1-2.3c-2.7-2.2-9.6-5.7-13.4-9.3
	c-2.1-2-6.9-6-6.9-6s-6.1-7.3-5.8-7.8c1.6-2.6,7.1,1.2,9.7,4.3c2.6,1.2,7.5,5.5,7.5,5.5s11.8,6.6,12.7,5c0.4-0.7-6.4-5.6-12.3-11.3
	c-5.5-5.4-10.2-11.7-9.3-12.9C11.7,768.2,18.4,773.6,18.4,773.6z"/>
<path class="st0" d="M268.8,983.6l5.8,28.7l145.8,132.6L316,1250.5l28.2,28.8c0,0,154.1-113.2,159.7-128
	c8.6-22.8-110.4-174.1-110.4-174.1L268.8,983.6z"/>
<path class="st11" d="M167.7,1330.5c0,0-29.4,32-35.2,39.9c-8.3,11.4,53.8,28.1,46.1,14.8c-1.8-3.1-6.8-13.4-7.1-14.4
	c-1.2-5.4,13.8-20,13.8-20L167.7,1330.5z"/>
<path class="st5" d="M211.3,1384.3l-40.5-14.8c0,0-15.3,7-38.6,1.3c0,0-8.2,11.6-8.8,26.3c0,0,76.7,9.8,98.1,3.7
	S211.3,1384.3,211.3,1384.3z"/>
<path class="st13" d="M273.7,996.9l6.5,180.9l-129.4,158.6l35,19.2c0,0,143.1-122.8,158.8-157c9.7-21.2,42.5-213,42.5-213
	L273.7,996.9z"/>
<path class="st6" d="M391.3,982.1c-11.9-26.8-10.5-218.6-56.6-263.5c-16.2,2.8-27.8,4.3-30.5,5c-2.4,19.8-5.1,92.3-6.7,158.7
	c-1.1,44.3,0,90.7-5.4,115.2C288.7,1012.6,402.2,1006.5,391.3,982.1z"/>
<path class="st14" d="M266.4,733.4c-13,3-22.5,5-39.5,30.1c-16.2,24-52.3,81-52.3,81l-95.1-42.3l-4.5,48.2
	c0,0,107.5,55.9,122.7,50.8s57.8-67.4,61-71.6c0.8-1-3.6,66.6-3.6,77.4s-20.6,104.8-20.6,104.8s52.3,12.9,62.5-10.5
	c31.3-71.7,7.3-278,7.3-278S275.8,731.3,266.4,733.4z"/>
<path class="st11" d="M461.7,528.1c-4-3.3-5.7-11.4-6.4-16.5l-1.8-6.8c1.6-0.7,33.3-5.2,42.9-5.4c0.9,3,1.4,5.6,1.1,7.2
	c-1.4,7.8-11.4,58.5-11.4,58.5l-27.3,0.5C458.8,565.6,464.7,535.5,461.7,528.1z"/>
<path class="st14" d="M345.4,729.8c0,0,18.7,53.3,34.2,45.6s102-96,102.9-100.2s6.9-112.7,6.9-112.7l-34.3-6.8l-19.7,88.8
	c0,0-63.4,60.6-76.2,66.6C351.6,714.4,346.4,721.5,345.4,729.8z"/>
<path class="st14" d="M396,994.9c10.4,0,14.2-1.4,21.1-3.5c0,0-19.8-111.3-31.2-221.7c-4.5-43.6-8.8-61.5-26.7-58.3
	c-5.2,0.9-19.3,6.3-24.4,7.1c45.2,127.9,45.4,226.3,51.8,254.9C389.7,987.7,392.5,995,396,994.9z"/>
<path class="st11" d="M329.9,699.2l4.7,19.3c0,0,1.1,16.8-6.7,18.3c-9.4,1.8-23.4-12.3-23.4-12.3l-8.1-54.5L329.9,699.2z"/>
<path class="st11" d="M329.9,699.2l4.7,19.3c0,0,1.1,16.8-6.7,18.3c-9.4,1.8-23.4-12.3-23.4-12.3l-8.1-54.5L329.9,699.2z"/>
<path class="st13" d="M296.5,670.4l33.4,28.8l3.5,14.4C320.7,710.6,302.5,696.5,296.5,670.4z"/>
<path class="st11" d="M330.1,620.2c8.1,0,15.4,5.6,18.2,13.7c3.2,9.1,5.7,18.5,7.3,28c3.5,21-8.4,40.1-18.8,41.7s-35.1-5.3-40.6-35
	c-2.3-12.7-5.4-29.4,5-38.2C309.4,623.5,320.8,620.3,330.1,620.2z"/>
<path class="st15" d="M299.6,691.1c0,0-36.6-32.6-38.2-58.1s21.9-39.1,42.1-39.8c8.2-0.3,16.5,0.1,24.6,1.3
	c20.2,2.5,33.2,11.5,28.6,28c-6.2,22.2-48,3.5-56.6,10.3c-7.1,5.7,4.4,19.3-2.5,24.6c-6.5,4.9-3.2,3.2-1,12.6
	C298.1,676.9,299,684,299.6,691.1z"/>
<path class="st11" d="M285.4,661.5c0.9,6.1,4.6,10.6,8.3,10.1s6-5.9,5.1-12s-4.6-10.6-8.3-10.1S284.5,655.4,285.4,661.5z"/>
<path class="st13" d="M463.6,504.7c4.6,2.9,8.6,6.7,11.9,11.2c0,0,15.4-9.9,14.9-13c-0.7-4.2-16.5,3.6-16.5,3.6L463.6,504.7z"/>
<path class="st3" d="M65.5,299.7l416.8,214.6c22.4,11.5,50.8,1.2,63.3-23.2l106.4-206.7c12.5-24.4,4.5-53.5-17.9-65L217.4,4.7
	C195-6.8,166.6,3.6,154.1,27.9L47.6,234.7C35.1,259,43.1,288.2,65.5,299.7z"/>
<rect x="279.9" y="46.7" transform="matrix(0.4577 -0.8891 0.8891 0.4577 -119.6695 457.4418)" class="st16" width="70.5" height="560.2"/>
<rect x="214.1" y="31.2" transform="matrix(0.4585 -0.8887 0.8887 0.4585 51.8815 271.1006)" class="st5" width="68.5" height="123.5"/>
<path class="st11" d="M463.4,504.3c-0.7-2-2.2-4.7-1.5-5.8c4.5-6.8-0.3-14.2-3.6-8.4c-1.9,3.4-5.2,10.7-4.9,14.6
	c0.2,2.8,3,13.4,3,13.4S467.6,515.4,463.4,504.3z"/>
<path class="st11" d="M1719.1,1218.5c0,0-2.6,32-0.5,42.3c1.1,5.6,7.3,17,4.5,22.2s-6.1,6.5-6.1,6.5l-73.8,1.2
	c-4,0.1-1.4-2.5,1.9-4.8c5.3-3.8,9.6-6.4,26.5-14.4c1.1-0.5,5.1-3,6.6-3.9c3.9-2.6,7.5-5.6,10.6-9.2c5.3-5.8,5.8-34,5.8-34
	L1719.1,1218.5z"/>
<path class="st16" d="M1661.4,793.8c0,0-31.7-15.6-25.6,18.4s52.6,416.5,52.6,416.5l43.5,2.4c0,0,5.6-127.5,4.3-145.8
	s-8.4-46.6-8.4-46.6l-3.7-113.1l-41.1-139.7L1661.4,793.8z"/>
<path class="st2" d="M1678.2,1267.6c19.5,4.9,33.9,1.6,42-1.6c2.1,5.8,4.8,13.1,3.4,17.3c-1.8,5.1-4.1,7.4-6.4,7.5
	c-17.8,0.5-65.5,0-79.1,0.1c-1.2,0-2.2-0.9-2.2-2.1c0-0.5,0.2-1.1,0.5-1.5C1639.7,1283.3,1676.7,1268.5,1678.2,1267.6z"/>
<path class="st11" d="M1635.8,563.9c0,0-26.8-51.6-31-70.5s-18.6-114.3-17.4-120.5s24-20.9,21.2-26.2s-24.5-5.2-29.5-4.8
	s-15,3.3-19.2,6.9s4.8,117.9,7.5,142.5s36,100.4,36,100.4L1635.8,563.9z"/>
<path class="st11" d="M1844.7,966.1c0,0,22.1-23.2,27.1-32.6c2.6-5,5-17.8,10.5-20.1s8.9-1.2,8.9-1.2l58.1,45.6
	c3.2,2.5-0.5,2.8-4.5,2.6c-6.5-0.4-11.5-1.1-29.7-5.5c-1.2-0.3-5.9-0.9-7.6-1.1c-4.7-0.5-9.4-0.3-14,0.5
	c-7.8,1.2-25.9,22.7-25.9,22.7L1844.7,966.1z"/>
<path class="st2" d="M1907.4,953.7c-12.1-16.1-25.4-22.6-33.7-25.2c2-5.8,4.3-13.4,8-15.8c4.6-2.9,7.8-2.3,9.6-0.9
	c14.1,10.9,51.1,40.6,61.8,49.1c1,0.7,1.1,2.1,0.4,3.1c-0.3,0.4-0.8,0.7-1.3,0.8C1947.2,965.8,1909.1,954,1907.4,953.7z"/>
<path class="st15" d="M1845.3,548.2c-13.8-28.9-44.3-44.8-73.8-37.1c-10.6-14.3-27-24.4-44.1-26.8c-33.7-4.8-77.1,11.6-72.7,46.7
	c-10.6,24.6-8,58.4,13.2,75c-3.9,32.3,28.5,61,66.8,57.1c15.4,21.3,42.2,33.8,67.3,28.9c6-1.2,15.2-3.4,16.7-3.1
	c-2-0.2,43.7,29.7,75.2-23.6C1926.2,611,1894.5,550.3,1845.3,548.2z"/>
<path class="st14" d="M1648.6,806.1c0,0,71.1-31.6,72.3-28c8.9,28.7,36.7,19.5,53.1,70.1c6.9,21.2,14,162.1,14,162.1
	s28.1-23.3,68.1-64c3.1-3.1,33.2,25.5,33.2,25.5c-79.6,107.5-113.9,113.1-127.2,107.1c-27.7-12.6-86.2-188.3-86.1-188.3
	C1669.1,877,1648.6,806.1,1648.6,806.1z"/>
<path class="st11" d="M1766.6,607.5c0,0,102.8-0.1,124.9-1.4c19.9-1.2,99,0.9,102,0.5s23.5-35,26.9-31.2s-11.4,17.2-6.8,20.7
	s53.6-4.3,53-0.7c-1.2,6.8-29.8,5.9-29.8,9.2s29.9-1.8,32,3.6s-28.8,2.2-30,4.6s28.6,6.9,25.5,11.9c-1.7,2.7-26.4-4.6-26.3-0.8
	s18.2,12.3,16,15.2s-14.2-9.2-24.6-9.3s-18-5.6-34.7-1c-8.3,2.3-71.3,10-124.6,14.5c-54.6,4.7-99.4,6.2-99.4,6.2L1766.6,607.5z"/>
<path class="st5" d="M1614.1,680.3c-1.4-16.5,1.9-29.2,2.6-34.7c-5-17.2-15.6-53.7-19.4-60.9c0,0,17.9-34.4,36.2-34.2
	c0,0,18.7,42.2,33.2,49.7c0.2,0,5.1,2.2,7.3,2.2c14-0.1,62.8-1.6,71.9-1.8l-5.1,69.3c-35.3,69.4-25.8,105.7-12.3,119.2
	c6.3,6.3-88.3,32-92.6,23.1C1630.6,801.6,1616.8,713.6,1614.1,680.3z"/>
<path class="st5" d="M1721.1,603.2c9-4.3,74.2-2.2,74.2-2.2s9.1,45.4,1.8,56.3c0,0-58.3,8.7-56.6,13.5L1721.1,603.2z"/>
<path class="st11" d="M1704,574.1c0,0-1.1,24.8,0,35.1s-10.6,34.5-32.4,34.9s-3.2-23.2-1.3-33.3s4.2-49.9,4.2-49.9L1704,574.1z"/>
<path class="st13" d="M1674.5,560.8c0,0-0.5,9.2-1.3,19.9c6.9,8.2,17.5,12.4,30.3,7.4c0.1-7.7,0.4-14.1,0.4-14.1L1674.5,560.8z"/>
<path class="st11" d="M1705.8,500.3c8.1,2.9,15,8.6,19.3,16.1c7,12.4,9.9,47.6-16.8,62.1s-45-9.9-43.8-32.4S1672.6,494,1705.8,500.3
	z"/>
<path class="st11" d="M1659.2,538.7c1.8,5.6,5.9,9.2,9.2,8.2s4.4-6.4,2.6-12s-5.9-9.2-9.2-8.2S1657.4,533.1,1659.2,538.7z"/>
<path class="st15" d="M1702.1,499.3c0,0,13.5,37,27.4,41.2s12.4,22.2,12.4,22.2s2.6-41.8-10-52.3S1702.1,499.3,1702.1,499.3z"/>
<path class="st11" d="M1723.4,547.6c-2.2,5.7-0.9,11.6,2.9,13.1s8.8-1.9,11.1-7.6s1-11.6-2.9-13.1S1725.6,541.9,1723.4,547.6z"/>
<path class="st13" d="M1556,357.6c0,0,30.1,1.3,33.7,1.3s13.8-10.6,13.8-10.6L1556,357.6z"/>
<ellipse transform="matrix(0.7071 -0.7071 0.7071 0.7071 285.4145 1173.2095)" class="st6" cx="1558.9" cy="242.1" rx="117" ry="117"/>
<path class="st5" d="M1639.2,185.6c31.1,44.4,20.4,105.6-24,136.7c-44.4,31.1-105.6,20.4-136.7-24c-31.1-44.4-20.4-105.6,24-136.7
	C1546.9,130.4,1608.1,141.2,1639.2,185.6C1639.2,185.5,1639.2,185.6,1639.2,185.6z"/>
<path class="st7" d="M1570.2,311l-4.3-15.8c-6.9,1.5-13.9,2.1-20.9,1.8c-5.2-0.3-9.4-4.6-9.4-9.8v-0.6c-0.1-5.5,4.3-10,9.8-10.1
	c0.3,0,0.5,0,0.8,0c6.4,0.4,12.7-0.2,18.9-1.8c9.5-2.6,15-8,13.2-14.7c-1.7-6.3-8.1-8.9-21.6-9.7c-19.4-1.2-33.8-6.2-38.2-22.4
	c-4-14.6,3.2-28.9,20.1-37.2l-4.3-15.8l16.3-4.4l4,14.6c5.2-1.2,10.5-1.8,15.8-1.9c5.5,0,9.9,4.4,10,9.9l0,0
	c0.1,5.5-4.4,10-9.9,10.1c-0.1,0-0.2,0-0.3,0c-5.1-0.1-10.2,0.5-15.2,1.9c-10.8,2.9-13,8.5-11.8,13.2c1.5,5.5,8.3,7.4,23.8,8.9
	c21.7,1.6,32.2,8.6,36.2,23.6c4,14.8-3.1,30.3-21.3,38.8l4.6,17L1570.2,311z"/>
<path class="st11" d="M1589.7,358.9l12.4-11.2c0,0-5.9-7-3.4-8.4c4-2.2,10.8,6.3,10.2,8.3s-7.9,8.7-7.9,8.7L1589.7,358.9z"/>
</svg>
