<svg id="_Layer_" data-name="&lt;Layer&gt;" xmlns="http://www.w3.org/2000/svg" viewBox="0 0 2975 1700"><defs><style>.cls-1{fill:#fff;}.cls-2{fill:#fbecdb;}.cls-3{fill:#a8d29f;}.cls-4{fill:#4a75cb;}.cls-5{fill:#699dee;}.cls-6{fill:#d86713;}.cls-7{fill:#f1a34f;}.cls-8{fill:#c95c12;}.cls-9{fill:#82b378;}.cls-10{fill:#ffb973;}.cls-11{fill:#ed975d;}.cls-12{fill:#2b478b;}.cls-13{fill:#233862;}.cls-14{fill:#1e3d70;}.cls-15{fill:#ffb27d;}.cls-16{fill:#2c3a64;}.cls-17{fill:#4a82d3;}.cls-18{fill:#a9453d;}.cls-19{fill:#ee9849;}.cls-20{fill:#e58638;}.cls-21{fill:#2a4e96;}.cls-22{fill:#35488b;}.cls-23{fill:#2e3552;}.cls-24{fill:#4271bc;}</style></defs><rect class="cls-1" width="2975" height="1700"/><path class="cls-2" d="M327.57,1532.46s-282.69-602,274.46-602c294.37,0,173.1-165.17,373.24-356.32s900.07-343.87,1049,25.25-219.19,649.37,136.56,601.29c427.51-57.77,596.39,331.77,596.39,331.77Z"/><path class="cls-3" d="M2617.08,1456.08c-26.38-19.28-80.29-6.26-120.07,7.66a181.72,181.72,0,0,0-21.87-25.37c85.7-55.21,204.08-172.95,141.34-182.92-54.54-8.66-128.15,97.32-167.48,161.83-40.85-27.48-103.44-47.68-199-40.67-248,18.18-441.76-141.8-584.58-88.44-113.55,42.42-217.62,66.19-318,58.07,4.32-73.32,5.26-217.27-52.32-232.2-58.44-15.16-1.11,148.32,30.75,230q-11.2-1.44-22.37-3.43c-20.64-40.68-54.64-93.92-92-95.74-35.16-1.72,8.23,46.15,50.93,86.7-122.73-25.77-268.32,74-270.73,192H2524s-2.71-17.22-14.73-39.92C2568.47,1482.4,2645.73,1477,2617.08,1456.08Z"/><rect class="cls-4" x="922.12" y="1432.31" width="403.85" height="91.19"/><rect class="cls-5" x="797.6" y="1432.31" width="403.84" height="91.2"/><rect class="cls-6" x="1484.83" y="1103.17" width="300.71" height="420.31" transform="translate(3270.38 2626.65) rotate(180)"/><rect class="cls-7" x="1392.12" y="1103.17" width="300.71" height="420.31" transform="translate(3084.94 2626.65) rotate(180)"/><polygon class="cls-8" points="1692.82 1103.17 1785.54 1166.28 1785.54 1103.17 1692.82 1103.17"/><path class="cls-9" d="M764.56,1196.27s-56.23,41.82-67.2,39.28,41.1-45.14,41.1-45.14c-19.59-9.42-80.5-3.51-80.5-3.51s-20.28,65.42-30.29,60.26,20.92-57,20.92-57C626.77,1188.83,600,1205,600,1205c-36.64,28.93,2.41,74.49,2.41,74.49s-7.52,22.51-30.66,43c0,0-33,24.44-35.34,68.11l6,.53s9.51-40.67,26.78-59.9c.68-.7,1.65-1.7,2.86-2.91,2.81-2.61,4.78-4.57,6.11-6,8.6-8.27,20.48-18.79,26.21-19.81a11,11,0,0,1-.25-2.88c.08.92.16,1.87.25,2.88,2,23,46.62,43.13,74.1,47.26s19-7.16,9.52-23.9-39.43-24.25-46.27-32,7.3-7.73,23.86-.17,18.82,27.73,45.38,40.45,66.52-31.36,66.52-31.36c-21.17-1.07-51.39-24.06-50.3-31.09s51.31,12.13,59.89,13,28.12-9.76,31.14-44.33S764.56,1196.27,764.56,1196.27Z"/><path class="cls-3" d="M465.9,1222.24s62.11-34.79,33.12-82c0,0-23.18-29-48-36.44,0,0,13.25,70.39,0,72s-9.11-79.51-9.11-79.51-65.43-31.47-91.1-29c0,0,40.58,68.74,27.33,67.08s-58.8-71.22-58.8-71.22-67.08-12.43-77.85,27.33,6.63,59.63,16.57,62.11,73.7,1.66,72.05,9.94-44.72,21.53-68.74,14.08c0,0,26.5,65.42,61.28,62.11s45.55-24.84,67.09-26.5,37.26,4.14,26.5,9.94-47.21,1.9-64.6,16.68-31.47,23.9.83,30.52,90.27,2.49,101.86-22.36Z"/><path class="cls-9" d="M482.46,1282.69c-17.39-32.3-16.56-60.45-16.56-60.45C446,1159.29,272.1,1103,272.1,1103c221.13,89.44,182.2,144.1,182.2,144.1,6,3.48,14.9,20.05,21.1,32.77.88,2.16,2.28,5.16,4.36,9.23h0c.84,1.83,1.51,3.34,2,4.39,11.38,28.48,5.35,77.68,5.35,77.68L494,1373C509.28,1323.42,482.46,1282.69,482.46,1282.69Z"/><path class="cls-3" d="M564.71,1174.27s-81.87-45.85-43.66-108.08c0,0,30.56-38.21,63.31-48,0,0-17.46,92.79,0,95s12-104.8,12-104.8,86.25-41.48,120.09-38.21c0,0-53.5,90.61-36,88.43s77.51-93.89,77.51-93.89,88.43-16.37,102.62,36-8.73,78.6-21.83,81.87-97.16,2.19-95,13.11,59,28.38,90.61,18.55c0,0-34.93,86.25-80.78,81.88s-60.05-32.75-88.43-34.93-49.13,5.45-34.94,13.1,62.23,2.5,85.16,22,41.48,31.5-1.1,40.23-119,3.28-134.27-29.47Z"/><path class="cls-9" d="M820.17,1017.06s-229.26,74.24-255.46,157.21c0,0,1.1,37.11-21.83,79.69,0,0-35.36,53.69-15.2,119l9.1-2.44s-7.95-64.85,7.05-102.4c.62-1.38,1.5-3.37,2.61-5.79h0c2.74-5.36,4.59-9.31,5.75-12.16,8.17-16.76,19.95-38.61,27.81-43.19C580,1207,528.69,1135,820.17,1017.06Z"/><path class="cls-7" d="M562,1514.72a160.38,160.38,0,0,0,160.38-160.38H401.57A160.38,160.38,0,0,0,562,1514.72Z"/><path class="cls-10" d="M601.42,1513.5a160.54,160.54,0,0,1-180.3-159.16H461A160.43,160.43,0,0,0,601.42,1513.5Z"/><path class="cls-7" d="M704.77,1503.69H419.14a19.79,19.79,0,0,0-19.78,19.79H724.55A19.79,19.79,0,0,0,704.77,1503.69Z"/><path class="cls-6" d="M723.53,1354.34H398.76a2.46,2.46,0,1,0,0,4.92H723.53a2.46,2.46,0,0,0,0-4.92Z"/><path class="cls-11" d="M1961.13,509.78c-4.65-.71-18.66,12.24-18.66,12.24h0c-29.91,3.46-73.64,11.4-89.38,14.43-11.17,2.15-41.18-8.08-70.5-19.83-34.87-14-68.75-30.1-68.75-30.1-19.35-1-41.32,34.31-2.08,56.75,6,3.43,28.49,9.28,54.41,14.62h0c35.75,7.37,78,13.76,92.36,11.52,16.7-2.61,64-19.91,92.09-33.15h0l.07,0,.31-.15c1.69-.79,8.57-3.86,13.17-3.58,5.27.31,17-9.33,17.36-11.9S1965.78,510.48,1961.13,509.78Z"/><path class="cls-12" d="M1924.61,954.46l-16.47,3.35s-75.37-84.68-87-120.31c-6.22-19-46-27.28-87.6-38-36.19-9.35-73.74-20.63-91.67-42.63-38.55-47.26,24.2-105.34,24.2-105.34s66.73,39.66,124.29,80.63c40.23,28.63,76,57.9,81.38,74.72C1884.83,847.76,1912.58,925.52,1924.61,954.46Z"/><path class="cls-13" d="M1902.56,982.4h9.27c3.1-.49,5.39-1.39,8.57-1.8,4.84-.64,7.06,1.35,7.5,1.8l.09.09h39.35c1-1.41,0-4.68-.89-7.09a5.58,5.58,0,0,0-3.68-3.37c-4.17-1.21-12.4-2.29-19.94-9.11-4.23-3.83-20.46-14.08-20.46-14.08l-.09,0c-.36,0-2,.53-9.44,6.76-3.81,3.22-10.32-4.54-10.32-4.54a9.26,9.26,0,0,0-2.13,2.89,9.82,9.82,0,0,0-.85,6c.59,3.55-1.3,10.14-2.82,14.59-.91,2.7-1.68,4.62-1.68,4.62S1894.59,981.4,1902.56,982.4Z"/><path class="cls-14" d="M1790.36,732.13l-56.82,67.34c-36.19-9.35-73.74-20.63-91.67-42.63-38.55-47.26,24.2-105.34,24.2-105.34S1732.8,691.16,1790.36,732.13Z"/><path class="cls-12" d="M1738.73,697s-4.58,14.44-12,36.17c-9.43,27.48-23.47,66.6-38.7,102.89-3.35,8-6.76,15.81-10.19,23.35-12.67,27.92-25.63,51.86-37,64-20.52,21.86-70.39,162.43-70.39,162.43l-12.43-3.44s-17.33-120,44-188.33a4.31,4.31,0,0,0,1.24-2.55,0,0,0,0,0,0,0c.82-10.11,3.74-55.38,10.1-101.26,1.56-11.26,3.33-22.54,5.31-33.35.13-.7.26-1.38.39-2.06,9.33-50,18.27-72.24,29.81-83.42l84.87,24.15Z"/><path class="cls-13" d="M1556.54,1103.08h9.27c3.1-.49,5.39-1.39,8.57-1.81,4.84-.63,7.06,1.35,7.5,1.81l.09.09h39.35c1-1.42,0-4.69-.89-7.1a5.6,5.6,0,0,0-3.68-3.37c-4.18-1.21-12.4-2.28-19.94-9.1-4.24-3.83-20.47-14.09-20.47-14.09l-.08,0c-.36,0-2,.53-9.44,6.76-3.81,3.22-10.32-4.54-10.32-4.54a9.26,9.26,0,0,0-2.13,2.89,9.84,9.84,0,0,0-.85,6.05c.59,3.54-1.3,10.13-2.81,14.59-.92,2.7-1.7,4.61-1.7,4.61S1548.57,1102.08,1556.54,1103.08Z"/><path class="cls-15" d="M1574.74,533.71s-14.2,34.73-30.57,68.54c-13.77,28.43-29.07,56.2-38.77,62.13-13.68,8.35-51.36,31.92-75.81,49.51,0,0-19.07-.15-22,3.5s-9.8,20.07-7.8,21.73,17.16.89,20.84-2.89c3.22-3.29,10.37-5.66,12.15-6.21l.33-.11.08,0h0c29.7-9.14,76.3-28.18,90.4-37.49,12.15-8,39.07-41.18,60.54-70.69h0c15.57-21.4,28.27-40.87,30.39-47.44C1628.4,531.26,1588.38,520,1574.74,533.71Z"/><path class="cls-16" d="M1649,397.49a73.24,73.24,0,0,0-5.08-6.57,15.84,15.84,0,0,0,6.26-.94c5-2.06,7.26-17.88,6.51-22.58s-7.67-18.26-16.21-19.61-17.36,8.12-17.36,8.12c1.58-6.84,16-10.79,16-10.79-29.75,5.49-28.23,25.33-28,27.17-27.23-9.71-43.22,41.58-43.22,41.58l70.55,41.58s.18-11.33,6.91-10.6C1655.85,446,1664.59,420.21,1649,397.49Z"/><path class="cls-15" d="M1653.5,505.11c-16.19,7.63-37.67-3.36-37.56-3.48,1.39-1.38.9-5.54-.37-11-1.27-5.67-4.28-13.42-9.83-22.66-1.15-2-2.31-3.94-3.7-6l1.85-.69,31.45-12.6s5.09,9.13,10.41,17.45c4.51,6.94,9.25,13.19,11.33,12.95C1657.2,479,1678,493.32,1653.5,505.11Z"/><path class="cls-11" d="M1635.34,451.81c-.81,11.21-4.62,31.45-19.77,38.85-1.27-5.67-4.28-13.42-9.83-22.66Z"/><path class="cls-15" d="M1603.9,480.76s40.95-16.14,30.5-41.48-12.19-44.5-38.77-35.26-27.65,21-26.22,30.28S1593,484.3,1603.9,480.76Z"/><path class="cls-16" d="M1619.17,433.5c18.91-2.67,24.43-10.31,24.43-10.31A52.38,52.38,0,0,1,1616,401.14s-21.25-7.17-37,4.81a10.55,10.55,0,0,0-2,4.44c-3.61-1.18-9-.87-12.17,9.33-4.7,15.32,12,32.06,12,32.06,4.06-1.15-.52-14.81-1.16-22.1-.47-5.36,2.43-12.23,4-15.48,2,2.6,21.95,27.66,46.3,28.66a102.73,102.73,0,0,1-24.58-13.19C1607.21,432.53,1613.4,434.31,1619.17,433.5Z"/><path class="cls-5" d="M1731.45,557.33c-.35-1.23-.72-2.5-1.11-3.8a95.76,95.76,0,0,0,10.33-31c2.78-18.73-2-30.3-2-30.3s-28.4-15.06-40.94-17l-.16-.05-.5-.05c-12.66-1.74-40.07,3.85-40.07,3.85s5.29,14.08-9.62,23.46-30.85-2.41-30.85-2.41c-.48.33-1,.68-1.51,1.06h0s-39.24,25.9-42.76,31.81-18.62,35.22-18.62,35.22,4.79,24.59,57.8,26.65c4.36,10.57,7.7,20.88,8.78,29.48,4.21,33.39-.68,59.72,4.23,79.21s93.36,8.38,109.38,4.63,12.41-20.86,13.65-37.47C1749.06,649.8,1736.67,575.74,1731.45,557.33Z"/><path class="cls-17" d="M1740.67,522.57a96,96,0,0,1-10.4,31.1c-1.39-6.13-7-28.56-16.19-38.73C1714.08,514.94,1729.46,516.33,1740.67,522.57Z"/><path class="cls-11" d="M1380.52,741.38s16.48-20,20-22.33,19.11-6.5,20-5.67.93,2-1,3.75-9.29,6-8.24,6.48,23.26-10.57,26.47-6.85-1.82,19.06-10.38,26.42-34.1,10.5-35.7,11.53C1378.07,763.42,1380.52,741.38,1380.52,741.38Z"/><path class="cls-15" d="M1090.39,695.27s23.68,28.08,53.82,16.33c0,0,6.49-15.68,6.58-27.25,0-1.42,0-2.8,0-4.11.16-13,.6-20.33.6-20.33h0c-1.37-.57-46.09-18.93-46.05-17.41C1106.13,677.72,1090.39,695.27,1090.39,695.27Z"/><path class="cls-11" d="M1109.85,650.9c4.31,8,19.11,23.63,41,29.34.16-13,.6-20.33.6-20.33h0C1150.17,659.58,1108.57,648.54,1109.85,650.9Z"/><path class="cls-15" d="M1160.81,658.56s-50.29,11.82-57.17-19.61-18-51.07,13.81-59.94,40.7,1.74,45.55,11.67S1173.71,654.68,1160.81,658.56Z"/><path class="cls-18" d="M1105.36,647.52c-.69.44-11.51,3.76-32-37.06-3.22-6.41-5.41-20.27,2.09-32.52s34.09-21.88,56.18-26.07,27.39,8.24,32.59,20.73c5.46,13.11,21.23,23.91,21.23,23.91-19,10.64-42-4.58-49.94-2.08s-10.75,15-11.35,19.05-1.51,7.35-11.51,3.76-4.52,14.17-2.92,17.56C1109.73,634.8,1111.09,643.84,1105.36,647.52Z"/><path class="cls-16" d="M975.82,1432.31H945.37c-6.38,0-13.48-6.48-15.25-18.33s-14.9-18.34-17.74-28,11.71-23.37,11.71-23.37l2.43-3.17,2.53-3.3,24.12,5.75s.6,5.82,1,13.24c.26,5.35.4,11.54.1,17-.71,13,3.57,26.88,14.92,29.4S975.82,1432.31,975.82,1432.31Z"/><path class="cls-16" d="M1187.79,1432.6h-80.71a6.55,6.55,0,0,1-1.71-.51c-5.39-2.78-3.7-24-3.06-30.58.13-1.22.22-1.93.22-1.93s28.38-23.37,32.28-5.47c.13.55.27,1.1.42,1.64h0c4.93,16.74,27,24.35,39.68,26.47C1184.63,1423.86,1187.15,1429.69,1187.79,1432.6Z"/><path class="cls-19" d="M1171.53,965.85s-4.31,53.78-9.38,118.42c-6.89,87.82-15.17,195.69-16,216.12-1.41,35.48-7.09,92.24-7.09,92.24s-13.48,13.49-40.45,7.8c0,0-24-81-30.89-166.75-.11-1.41-.22-2.82-.32-4.24-6.39-87.27-16.32-271-16.32-271Z"/><path class="cls-20" d="M1171.53,965.85s-4.31,53.78-9.38,118.42l-94.42,149.41c-.11-1.41-.22-2.82-.32-4.24-6.39-87.27-16.32-271-16.32-271Z"/><path class="cls-19" d="M1151.84,972.24s-77.69,194.76-128.78,286.29-67,117.07-67,117.07-29.26-11.7-31.92-19.69c0,0,19.53-176.7,53.74-219.77,19.33-24.34,42-97.38,43.11-122.93s6.91-76.09,6.91-76.09Z"/><path class="cls-11" d="M974,939.8s-2,24.33-3.49,28.06S959.18,983.17,958,983s-1.82-1.08-1.24-3.44,4-9.64,2.89-9.45-12.32,20.7-16.8,19.54-8.85-15.73-6.19-26,20.75-26.47,21.44-28.13C964,921.43,974,939.8,974,939.8Z"/><path class="cls-14" d="M965.62,946c8.6,2.76,10,2.14,10,2.14s41.85-76.2,46.09-83.18,88.87-85.45,88.87-85.45l-21.75-81.1S992.56,823,982.16,840.91C965,870.46,954.92,939.1,954.92,939.1A25.24,25.24,0,0,0,965.62,946Z"/><path class="cls-21" d="M1187.93,811.32c-.3,16.65-1.27,35.37-2.58,54.39l-.24,3.38c-.83,11.78-1.74,23.59-2.77,35.1q-.63,6.93-1.33,13.67l-.07.6c0,1.68-.24,3.5-.42,5.16-4.25,43.12-8.7,77.2-9.52,77.72a4.79,4.79,0,0,1-3.31.84c-11.31-1.42-45.06,1.15-72.68-4.86-23.31-4.92-43.39-14.24-64.66-26.81-2.82-1.67-9.26-6.09-8.73-9.39.51-3.63,1.46-8.88,2.67-15.48,4.19-22.94,11.42-62.4,13.89-108.58.48-8.6,1.18-17.1,2.09-25.45a385.45,385.45,0,0,1,11.27-60.78c9.47-34.11,23.39-60.23,40.85-70.45,2.28-1.27,14.56,6.54,25.83,13.77a49.79,49.79,0,0,0,32,7.59l9.38,10.38c11.37,13.21,23.47,30.8,26.77,55.79.25,1.85.46,3.81.64,5.9A367.21,367.21,0,0,1,1187.93,811.32Z"/><path class="cls-14" d="M1187.93,811.32c-.3,16.65-1.27,35.37-2.58,54.39l-.24,3.38c-64.6-40.43-74.55-114.43-74.55-114.43,31.78,1.39,57,8.7,76.49,19.15A367.21,367.21,0,0,1,1187.93,811.32Z"/><path class="cls-21" d="M1390.33,743.38c-3.33-9-8.51-8.43-8.51-8.43s-96.06,23.94-104.68,25-103.43-37-103.43-37-37.32-16.75-54.8-1.46c-15.19,13.29-15.88,30.12-12.33,44.26a42.26,42.26,0,0,0,35.73,31.49c38.68,4.93,115.85,14.2,132,11.95,36-5,117.58-52.1,117.58-52.1A30.31,30.31,0,0,0,1390.33,743.38Z"/><g id="man"><path class="cls-16" d="M2337.46,919.43s13.34,12.37,10.74,21.16-14.65,14.64-16.28,25.39-8.13,16.6-14,16.6H2290s-4.32-7.56,6.1-9.84,14.34-14.9,13.69-26.62,1-27.34,1-27.34l22.13-5.21Z"/><path class="cls-16" d="M2171.14,981.11c-1.35.68-6.11,1.15-12.64,1.46h-63.17c.22-1.87,1.69-8.57,12-10.24,11.67-1.89,31.88-8.68,36.38-23.6a15,15,0,0,0,.39-1.46c3.58-15.95,29.62,4.87,29.62,4.87s.08.64.19,1.73C2174.54,959.73,2176.08,978.65,2171.14,981.11Z"/><path class="cls-22" d="M2110.44,554.54s3.95,49.34,8.6,108.65c6.32,80.56,13.92,179.53,14.67,198.27,1.3,32.56,6.51,84.63,6.51,84.63s12.36,12.37,37.11,7.16c0,0,22-74.34,28.34-153,.1-1.29.2-2.59.29-3.88,5.86-80.07,15-248.67,15-248.67Z"/><path class="cls-16" d="M2110.44,554.54s3.95,49.34,8.6,108.65l86.63,137.07c.1-1.29.2-2.59.29-3.88,5.86-80.07,15-248.67,15-248.67Z"/><path class="cls-22" d="M2128.5,560.4s71.28,178.69,118.15,262.66,61.51,107.41,61.51,107.41,26.86-10.74,29.3-18.06c0,0-17.92-162.12-49.31-201.64-17.74-22.33-38.57-89.34-39.55-112.78s-6.35-69.81-6.35-69.81Z"/><path class="cls-15" d="M1908.64,463.48s-19.33-4.42-22.59-4.19-14.63,5-14.78,5.9.38,1.68,2.35,1.81,8.44-.7,8,.09-19.06,4.44-19.26,8.2,10,10.73,18.64,11.19,25.6-9.56,27.06-9.69C1920.43,475.72,1908.64,463.48,1908.64,463.48Z"/><path class="cls-20" d="M1900.37,468.39c-2.78-8.83-2.13-10.23-2.13-10.23s78.38-42.38,85.55-46.68S2072,321,2072,321l83,22.84s-128.38,97.79-146.78,108.32c-30.4,17.4-100.81,27.25-100.81,27.25A25.73,25.73,0,0,1,1900.37,468.39Z"/><path class="cls-15" d="M2097.1,279.09s-29.08,51.17-57.51,57.85c0,0,1.18-17.19,8.1-28.95-2.83-3.34-5.32-6.41-7.48-9.16a172.13,172.13,0,0,1-10.55-14.78l9.64-25.94,6.55-17.6a84.59,84.59,0,0,0,10.23,14.74C2074.71,276.67,2097.1,279.09,2097.1,279.09Z"/><path class="cls-11" d="M2056.08,255.25s3.47,25.65-15.87,43.58a172.13,172.13,0,0,1-10.55-14.78l9.64-25.94C2049.65,255,2056.08,255.25,2056.08,255.25Z"/><path class="cls-15" d="M2022,287.83s43.46-16.94,32.49-43.84-12.74-47.2-41-37.52-29.38,22.13-27.91,32S2010.41,291.54,2022,287.83Z"/><path class="cls-19" d="M2246.47,541.68c-17.53,25.2-148.59,58.88-147,41.43a188.17,188.17,0,0,0,0-34.4q-.49-5.61-1.39-11.89c-3.33-22.92-11.24-52.4-28.88-86.51q-2-3.84-4.13-7.74a266.79,266.79,0,0,1-18.17-40.83c-9.08-26.24-12.74-51.35-8.16-67.76,0-.08,0-.16.07-.23,27.4-12.67,38-61.8,38-61.8s93.46,16.78,145.82,141.36C2222.59,413.31,2261.72,519.75,2246.47,541.68Z"/><path class="cls-20" d="M2099.41,548.71q-.49-5.61-1.39-11.89c-3.33-22.92-11.24-52.4-28.88-86.51,3-18.36,7.21-33.63,11.8-40.5,18.64-27.94,29.5-32.31,29.5-32.31S2138.39,495.4,2099.41,548.71Z"/><path class="cls-15" d="M1952.08,520.66s-25.86,1.35-29.87,2.8-16.59,11.49-16.45,12.7,1.08,2,3.6,1.43,10.35-3.9,10.11-2.77-22.34,12.4-21.26,17.18,16.41,9.9,27.41,7.4,28.74-21.15,30.52-21.83C1971.25,531.8,1952.08,520.66,1952.08,520.66Z"/><path class="cls-19" d="M1947.2,530.46c-5.18-8.37-1.44-12.18-1.44-12.18s79.87-62.54,86.13-68.86,35.26-106.92,35.26-106.92,10-40.71,33.36-45.2c20.31-3.9,34.35,6.15,43.54,17.93a43.31,43.31,0,0,1,2.93,48.71c-20.39,34.37-61.53,102.58-73.54,114.23-26.74,25.94-116.2,62.19-116.2,62.19A31.06,31.06,0,0,1,1947.2,530.46Z"/><path class="cls-12" d="M2060.72,194c.3-.6,1.19-1.24,3.34-1.9a9,9,0,0,0-4.37-.16c-1.22-3-4.19-8.05-9.75-8.09a6.86,6.86,0,0,1,4.37,4c-7.62-4.84-21.75-6.24-57,5.51-46.49,15.48-23.26,42.47-16.22,44.63s20-11.72,31.68-13.62,18,14.36,22.42,15.71,1.92-2.35,6.58-6.06,7.33,5,7.23,11.13,9,11.92,9,11.92l5.33-9.77c5.32-9.77,3.87-45.23-1.22-51.62C2061.62,195.17,2061.18,194.6,2060.72,194Z"/></g><rect class="cls-23" x="196.12" y="1523.48" width="2631.55" height="9.39" rx="3.46"/><polygon class="cls-24" points="1325.96 1431.28 1325.96 1483.89 1201.44 1431.28 1325.96 1431.28"/><rect class="cls-4" x="1979.83" y="982.57" width="411.82" height="540.91"/><rect class="cls-5" x="1852.84" y="982.58" width="411.83" height="540.91"/><polygon class="cls-24" points="2391.65 982.58 2391.65 1063.46 2264.67 982.58 2391.65 982.58"/></svg>